<svg xmlns="http://www.w3.org/2000/svg" xmlns:xlink="http://www.w3.org/1999/xlink" viewBox="0 0 4020.55 1144.39"><defs><style>.cls-1{isolation:isolate;}.cls-2{fill:#9c3468;}.cls-3{fill:#e94377;}.cls-4{fill:#864f81;}.cls-5{fill:#fff;}.cls-6{fill:#f9bd9a;}.cls-7{fill:#fbcfb4;}.cls-8{fill:#1e1e1c;}.cls-9{fill:#cecccc;}.cls-10{fill:#634b93;}.cls-11{fill:#9d5890;}.cls-12{fill:#5d2a5f;}.cls-13{fill:#684085;}.cls-14{fill:#513d78;}.cls-15{fill:#5a4069;}.cls-16{fill:#873976;}.cls-17{fill:url(#Áåçûìÿííûé_ãðàäèåíò_54);}.cls-18{fill:#422769;}.cls-19{fill:#84266c;}.cls-20{fill:#62398e;}.cls-21{fill:#88256e;}.cls-22{fill:#e0e0e0;mix-blend-mode:multiply;}.cls-23{fill:#cc1517;}.cls-24{fill:#f089ab;}.cls-25{fill:url(#Áåçûìÿííûé_ãðàäèåíò_54-2);}.cls-26{fill:#1d1e1b;}.cls-27{fill:#f9ccce;}.cls-28{fill:#e72e64;}.cls-29,.cls-30{font-size:600px;font-family:Love-Story-Rough, Love Story Rough;}.cls-29{fill:#876bad;}.cls-30{fill:#893976;}</style><linearGradient id="Áåçûìÿííûé_ãðàäèåíò_54" x1="3755.75" y1="416.17" x2="3721.92" y2="672.51" gradientTransform="translate(994.68 -2065.83) rotate(35.33)" gradientUnits="userSpaceOnUse"><stop offset="0" stop-color="#fff"/><stop offset="1" stop-color="#dbeff9"/></linearGradient><linearGradient id="Áåçûìÿííûé_ãðàäèåíò_54-2" x1="3324.26" y1="691.66" x2="3287.2" y2="972.44" gradientTransform="translate(1080.47 -1762.77) rotate(35.33)" xlink:href="#Áåçûìÿííûé_ãðàäèåíò_54"/></defs><g class="cls-1"><g id="Capa_1" data-name="Capa 1"><path class="cls-2" d="M3989.69,1125.47c0,69.24-53.7,97.13-119.94,62.29s-119.93-119.21-119.93-188.44,53.7-97.13,119.93-62.29S3989.69,1056.23,3989.69,1125.47Z" transform="translate(-72.12 -68.77)"/><path class="cls-3" d="M3433.42,287.93c0,74.58-57.84,104.63-129.2,67.1S3175,226.62,3175,152s57.84-104.63,129.19-67.1S3433.42,213.34,3433.42,287.93Z" transform="translate(-72.12 -68.77)"/><path class="cls-3" d="M2972.63,512c0-1.75-1.48-174.89,172.78-263.36L3157.84,269C2996.77,350.73,2998.09,510,2998.12,511.61Z" transform="translate(-72.12 -68.77)"/><path class="cls-3" d="M3161.83,280.88a25.74,25.74,0,0,1-12.74-3.6c-11-6.3-19-19.93-18.49-31.71.3-7.72,4.16-13.93,10.6-17s14.32-2.54,21.6,1.6c11,6.3,19,19.92,18.5,31.7h0c-.31,7.75-4.2,14-10.64,17.08A20.36,20.36,0,0,1,3161.83,280.88ZM3158,261.06a2.48,2.48,0,0,0-.4.67l11.92-.29Z" transform="translate(-72.12 -68.77)"/><path class="cls-3" d="M2989.92,550.87a25.78,25.78,0,0,1-12.73-3.58c-11-6.31-19-19.93-18.5-31.71.3-7.72,4.17-14,10.61-17.07s14.32-2.53,21.61,1.61c11,6.3,19,19.92,18.48,31.71-.31,7.74-4.18,14-10.63,17.07A20.4,20.4,0,0,1,2989.92,550.87Z" transform="translate(-72.12 -68.77)"/><path class="cls-4" d="M4004.52,1060.08a27.1,27.1,0,0,1-12.59-3.29c-11.53-6.06-20.21-19.74-20.21-31.8,0-8,3.78-14.66,10.38-18.13s14.83-3.17,22.55.89c11.54,6.07,20.23,19.73,20.23,31.8,0,8-3.79,14.65-10.4,18.13A21.29,21.29,0,0,1,4004.52,1060.08Z" transform="translate(-72.12 -68.77)"/><path class="cls-4" d="M4065.31,756.87a27.15,27.15,0,0,1-12.63-3.3c-11.51-6-20.2-19.7-20.2-31.78,0-8,3.8-14.67,10.41-18.14s14.84-3.16,22.56.91c11.5,6,20.19,19.7,20.19,31.78,0,8.06-3.8,14.67-10.39,18.14A21.26,21.26,0,0,1,4065.31,756.87Z" transform="translate(-72.12 -68.77)"/><path class="cls-4" d="M4013.35,1031.76l-16.95-17.35,8.47,8.67-8.5-8.65c4.2-3.44,102.3-86.53,60.46-267.88l24.94-4.78C4126.82,937,4018,1028,4013.35,1031.76Z" transform="translate(-72.12 -68.77)"/><path class="cls-5" d="M3956,1157.3v16.37c0,4.72-3.6,6.65-8.11,4.28l-156.25-82.18c-4.51-2.37-8.17-8.12-8.17-12.83v-16.38c0-3.51,2-5.57,5.12-5.21l57.37,5.89.43,0c3,.29,4.93-1.61,5.05-4.93l.25-5.16c.12-4.08,3.05-5.91,6.95-4.5l11.09,4.18,11.1,7.49c3.9,2.69,6.89,7.64,7,11.85l.18,5.38c.12,3.38,2.08,7.34,5,10.15.06,0,.06.1.12.13l57.8,54.86C3954,1149.61,3956,1153.79,3956,1157.3Z" transform="translate(-72.12 -68.77)"/><path class="cls-6" d="M3893,1091.74l-23.29,6.87L3846,1067.24l.43,0c3,.29,4.93-1.61,5.05-4.93l.25-5.16c.12-4.08,3.05-5.91,6.95-4.5l11.09,4.18,11.1,7.49c3.9,2.69,6.89,7.64,7,11.85l.18,5.38C3888.16,1085,3890.12,1088.93,3893,1091.74Z" transform="translate(-72.12 -68.77)"/><path class="cls-7" d="M3909.24,1028.84l-3.29-2.43a3.09,3.09,0,0,0-.44-.23l.33-7.42c.95-21.46-15.83-48.64-36.87-59.7s-37.81-1.54-36.86,20.93l.33,7.85a3.52,3.52,0,0,0-1.14-.69l-3.3-1c-1.3-.41-2.14.47-1.87,2l4.11,23.4a4.7,4.7,0,0,0,2.83,3.44l.53.17.06,1.63c.86,20.18,16.41,43.91,35.31,53.85s34.46,2.58,35.32-16.71l.06-1.45c1.23.82,2.4.6,2.65-.56l4.12-19.08A4.44,4.44,0,0,0,3909.24,1028.84Z" transform="translate(-72.12 -68.77)"/><path class="cls-8" d="M3904.39,1009.07a47.6,47.6,0,0,1-8.51-4.79c-8.64-5.64-17.42-11.15-26-14.19a78.72,78.72,0,0,0-13.25-3.22c-3.87-.66-7.46-.47-11.61-3a28.8,28.8,0,0,1-7.24-6.14c-7.43-9.1-3.48-17.94,1-21.32,7.13-5.34,18.94-3.21,29.9,2.56a76.18,76.18,0,0,1,17.94,13.32,79,79,0,0,1,6.34,7.14c1.65,2.12,3.29,4.79,5.12,6.7a12.93,12.93,0,0,0,3.24,2.28,6.79,6.79,0,0,0,1.94.82c1.91.34,2.39-2,2.38-3.81a19.09,19.09,0,0,0-2.85-9.18c.26.45,2.68,1.67,3.16,2a23.8,23.8,0,0,1,3.46,2.57,29.71,29.71,0,0,1,6,7.3c3,5.21,4.05,11,2.72,14.91a10.05,10.05,0,0,1-4.85,5.49,9.47,9.47,0,0,1-5.84,1.41A12.49,12.49,0,0,1,3904.39,1009.07Z" transform="translate(-72.12 -68.77)"/><polygon class="cls-9" points="3797.63 1029.84 3822.87 1022.25 3831.45 1030.76 3797.63 1029.84"/><polygon class="cls-9" points="3797.39 1029.72 3772.15 995.57 3763.58 995.06 3797.39 1029.72"/><path class="cls-5" d="M3394.25,315.07v16.38c0,4.71-3.6,6.65-8.11,4.27l-156.25-82.17c-4.51-2.38-8.17-8.12-8.17-12.84V224.33c0-3.5,2-5.57,5.13-5.2l57.36,5.89.43,0c3,.3,4.94-1.61,5.06-4.92l.24-5.16c.12-4.08,3-5.92,6.95-4.5l11.1,4.17,11.09,7.5c3.9,2.69,6.89,7.63,7,11.84l.19,5.39c.12,3.37,2.07,7.33,5,10.14.07,0,.07.1.13.13l57.79,54.87C3392.24,307.39,3394.25,311.57,3394.25,315.07Z" transform="translate(-72.12 -68.77)"/><path class="cls-6" d="M3331.27,249.51,3308,256.38,3284.21,225l.43,0c3,.3,4.94-1.61,5.06-4.92l.24-5.16c.12-4.08,3-5.92,6.95-4.5l11.1,4.17,11.09,7.5c3.9,2.69,6.89,7.63,7,11.84l.19,5.39C3326.4,242.74,3328.35,246.7,3331.27,249.51Z" transform="translate(-72.12 -68.77)"/><path class="cls-7" d="M3347.47,186.62l-3.29-2.43a3.65,3.65,0,0,0-.43-.23l.32-7.42c.95-21.47-15.83-48.65-36.86-59.71s-37.82-1.54-36.87,20.93l.34,7.85a3.52,3.52,0,0,0-1.15-.68l-3.3-1c-1.29-.41-2.13.47-1.87,2l4.11,23.4a4.72,4.72,0,0,0,2.83,3.45l.53.16.07,1.63c.85,20.19,16.41,43.91,35.31,53.85s34.46,2.58,35.31-16.71l.06-1.44c1.24.81,2.41.6,2.66-.57l4.11-19.07A4.43,4.43,0,0,0,3347.47,186.62Z" transform="translate(-72.12 -68.77)"/><path class="cls-8" d="M3336.85,171c-.34-.36-.68-.71-1-1.05-4.91-4.8-11.43-10.26-17.95-13.06-6.28-2.69-13.22-5.16-17.5-10.42-2.27-2.78-3.74-6.3-7-8.12-2.24-1.26-5-1.49-7.56-1.85-3.7-.49-7.48-1.35-10.37-3.5-6.16-4.59-4.08-14.59,1.59-18.84,6.76-5.06,20.45-3.64,28.18-1.48a66.48,66.48,0,0,1,20.53,10.26,111.93,111.93,0,0,1,23.13,21.72,82.2,82.2,0,0,1,14.23,27.6c3.48,12,5.36,24.69,3.47,37a56.6,56.6,0,0,1-16.31,32.3,3.21,3.21,0,0,1-1.46.94,3.69,3.69,0,0,1-1.24,0c-6.78-.91-16.1-.94-21.06-5.94,2.86-2.35,5.44-5,8.26-7.34,2.64-2.22,3.62-6,4.61-9s2-6.3,3-9.45a1.44,1.44,0,0,0,1.64.13,3.06,3.06,0,0,0,1.1-1.24c1.43-2.58,1.62-5.56,1.79-8.45a91.07,91.07,0,0,0,.16-12.47,4.54,4.54,0,0,0-1.15-3.14c-.3-.28-.68-.49-1-.77a4.45,4.45,0,0,1-1-1.74c-.83-2.22-1.31-4.35-2.6-6.38A37.51,37.51,0,0,0,3336.85,171Z" transform="translate(-72.12 -68.77)"/><path class="cls-8" d="M3290.92,133.4c-2.17-1.43-2.82-4.1-2.89-6.54-.13-4.65.26-9.45-5.1-11.86-4.12-1.86-7.55.11-10.1,3.16-5.67,6.77-8.68,15.15-11,23.27a119.91,119.91,0,0,0-4.48,28.06c-.31,6.95-.47,14,1,20.8a50.11,50.11,0,0,0,8.84,18.68c3.95,5.44,12.8,8.08,19.38,10.22-1.36-.44-2.82-6.67-3.35-7.93-2-4.78-3.44-9.83-5-14.74-1.89-5.92-2.52-12.05-3.8-18a67.88,67.88,0,0,1-1.14-20,35.71,35.71,0,0,1,4.42-14.67C3280.71,138.61,3285.06,135.66,3290.92,133.4Z" transform="translate(-72.12 -68.77)"/><polygon class="cls-9" points="3235.87 187.62 3261.11 180.02 3269.68 188.53 3235.87 187.62"/><polygon class="cls-9" points="3235.62 187.49 3210.39 153.35 3201.81 152.84 3235.62 187.49"/><path class="cls-10" d="M3992.92,672.05c9.14-21.09,35.53-21.68,61-1.53a264,264,0,0,0,1.69-30,311.85,311.85,0,0,0-1.89-33.73c-26.39-6.29-54.08-36.22-62.67-68.23-3.73-13.85-3.28-25.89.49-34.81,4.92-11.73,15.66-18.11,30.22-16.21h.05v0a548.82,548.82,0,0,0-36.18-70.85,24.55,24.55,0,0,1-8.65,4.62c-17.64,5.52-43.34-6.61-62.52-31.33-22.72-29.25-28.08-65-12.23-80.68a499.51,499.51,0,0,0-59-51c-.2,29.12-22.62,40.93-50.4,27-.4-.18-.84-.36-1.24-.59-28.38-14.94-51.44-51-51.64-80.73-21.42-6.83-41.95-10.5-61.18-11,.1.13.2.31.3.45,6.91,13.4,10.14,26.53,10,37.76-.15,16.34-7.41,28.66-21,32-23,5.62-55.31-16.52-72.26-49.44a129.43,129.43,0,0,0-36.28,34.32,6.35,6.35,0,0,0,.6.5c27.13,23.41,42.14,61.66,33.49,85.48s-37.52,24.26-64.66,1.08a265.78,265.78,0,0,0-1.44,27.89,317.53,317.53,0,0,0,2.34,37.9h.1c27.08,4.93,56.26,35.67,65.2,68.68,8.85,32.6-5.36,55.23-31.81,51a545.17,545.17,0,0,0,37.28,71.4c16.75-14.76,48.61-3.17,71.52,26.12,22.56,28.84,28.08,64.25,13,80.27a481.41,481.41,0,0,0,58.6,49.67c.94-28.34,23.6-39.52,51.44-25,18.83,9.87,35.33,29.06,44.38,49.53a82.14,82.14,0,0,1,7.3,28.16c20.13,6.11,39.47,9.42,57.66,9.91-8-17.11-10.14-33.45-6.91-45.77,2.78-10.5,9.49-18.06,19.73-20.51,19.38-4.62,45.43,10.46,63.17,35a108.37,108.37,0,0,1,6.76,10.51,126.62,126.62,0,0,0,35.34-33c-25.35-23.54-39-60-30.52-82.94C3992.42,673.23,3992.62,672.6,3992.92,672.05ZM3791.63,643.4c-74.9-39.39-135.58-134.74-135.58-213s60.68-109.83,135.58-70.45S3927.21,494.67,3927.21,573,3866.48,682.74,3791.63,643.4Z" transform="translate(-72.12 -68.77)"/><polygon class="cls-11" points="3899.83 715.16 3950.57 688 3934.53 644.1 3925.2 606.16 3853.3 612.25 3862.78 678.18 3893.37 715.81 3899.83 715.16"/><path class="cls-12" d="M4055.64,640.5a264,264,0,0,1-1.69,30l-50.75,27.16-10.28-25.63-6.62-16.43,16.75-21.69,50.7-27.16A311.85,311.85,0,0,1,4055.64,640.5Z" transform="translate(-72.12 -68.77)"/><polygon class="cls-13" points="3473.07 171.95 3523.79 144.8 3580.12 193.32 3551.06 241.43 3488.01 215.68 3473.07 171.95"/><path class="cls-11" d="M3902.26,309.23l-50.74,27.16-49-22.54-10-28.48.3-.18,50.4-27A499.51,499.51,0,0,1,3902.26,309.23Z" transform="translate(-72.12 -68.77)"/><path class="cls-11" d="M3740,203.87,3689.25,231h-.1l-60.79-10.59,50.45-27.62C3698,193.37,3718.57,197,3740,203.87Z" transform="translate(-72.12 -68.77)"/><polygon class="cls-11" points="3406.19 293.35 3456.94 266.18 3485.21 278.49 3478.69 313.86 3443.59 318.96 3407.4 300.56 3406.19 293.35"/><path class="cls-12" d="M4022.69,756.76a126.62,126.62,0,0,1-35.34,33l-50.75,27.16,10.09-19.6,25.25-13.4,8.65-4.67Z" transform="translate(-72.12 -68.77)"/><path class="cls-14" d="M3904.6,810.5l-50.75,27.17-14.66-10.51-6.56-37,7-17.75,7.9-20,50.15,12.27C3894.46,777.05,3896.55,793.39,3904.6,810.5Z" transform="translate(-72.12 -68.77)"/><polygon class="cls-15" points="3620.97 706.31 3671.7 679.12 3627.99 652.77 3613.79 679.54 3620.97 706.31"/><path class="cls-16" d="M4003,633.94c-26.43-6.3-54.1-36.24-62.71-68.26s5.12-54.4,30.77-51v-.05a547.82,547.82,0,0,0-36.15-70.89c-17,14.12-48.55,2.41-71.19-26.69s-28.07-65-12.23-80.66a496.45,496.45,0,0,0-59-51c-.22,29.5-23.29,41.3-51.65,26.38s-51.44-51-51.66-80.7c-21.43-6.87-42-10.51-61.16-11.07.09.13.17.31.26.45,16.92,32.92,12,64.13-10.93,69.75s-55.31-16.54-72.23-49.46a129.63,129.63,0,0,0-36.32,34.34,6.62,6.62,0,0,1,.6.5c27.16,23.37,42.18,61.64,33.53,85.48s-37.53,24.26-64.69,1.07a262.84,262.84,0,0,0-1.42,27.87,315.88,315.88,0,0,0,2.32,37.93c.05,0,.05,0,.09,0,27.11,4.91,56.3,35.64,65.25,68.65,8.82,32.63-5.38,55.26-31.85,51.05A549.23,549.23,0,0,0,3550,619c16.79-14.75,48.64-3.17,71.54,26.11,22.55,28.86,28.1,64.27,12.95,80.28a482.66,482.66,0,0,0,58.63,49.68c.94-28.34,23.58-39.56,51.43-25,27.42,14.33,50,48.51,51.69,77.67,20.15,6.14,39.47,9.42,57.64,9.93-14.9-31.73-9.43-61,12.82-66.28,22-5.24,52.64,15,69.95,45.56a127.49,127.49,0,0,0,35.33-33c-25.35-23.55-38.95-60-30.51-82.95s35.59-24,61.76-3.29a258,258,0,0,0,1.68-30A321.63,321.63,0,0,0,4003,633.94Zm-262.12,36.62c-74.9-39.39-135.59-134.75-135.59-213s60.69-109.81,135.59-70.42,135.58,134.75,135.58,213S3815.76,709.92,3740.91,670.56Z" transform="translate(-72.12 -68.77)"/><ellipse class="cls-17" cx="3740.88" cy="528.83" rx="107.38" ry="178.95" transform="translate(310.96 2191.83) rotate(-35.33)"/><path class="cls-9" d="M3741.74,527.23l-99.5,46.91a268.75,268.75,0,0,1-27.78-60.58Z" transform="translate(-72.12 -68.77)"/><path class="cls-5" d="M3747.1,666.3c-74.88-39.39-135.58-134.76-135.58-213,0-33.63,11.23-58.6,29.94-73-22.43,13.49-36.16,40.1-36.16,77.3,0,78.27,60.7,173.65,135.58,213,42.72,22.47,80.79,21.83,105.64,2.63C3821.76,688.07,3786.39,687,3747.1,666.3Z" transform="translate(-72.12 -68.77)"/><path class="cls-2" d="M3861.62,593.34c-3.24-1.7-5.87-5.83-5.87-9.23s2.62-4.75,5.87-3.05,5.87,5.84,5.87,9.23S3864.87,595.05,3861.62,593.34Z" transform="translate(-72.12 -68.77)"/><path class="cls-8" d="M3849.57,581.3a6.74,6.74,0,0,1,.76,1.49,5.28,5.28,0,0,1,.3,1.85,3.57,3.57,0,0,1-.37,1.7,2.12,2.12,0,0,1-1,1,2.77,2.77,0,0,1-1.69.16,7.33,7.33,0,0,1-2.13-.78,15.19,15.19,0,0,1-2.33-1.52,20.41,20.41,0,0,1-1.89-1.65V581.4l.15.08a15.29,15.29,0,0,0,1.92,1.95,11.6,11.6,0,0,0,2.11,1.49,5.06,5.06,0,0,0,1.29.45,1.65,1.65,0,0,0,1.09,0,1.37,1.37,0,0,0,.66-.64,2.76,2.76,0,0,0,.21-1.22,4.1,4.1,0,0,0-.25-1.48,4.05,4.05,0,0,0-.67-1.18,4.83,4.83,0,0,0-1-1,10,10,0,0,0-1.31-.82l-.87-.45V576.9l.67.36a3.65,3.65,0,0,0,2.31.57c.58-.12.88-.6.88-1.41a2.64,2.64,0,0,0-.23-1.07,4.19,4.19,0,0,0-.61-1,4.71,4.71,0,0,0-.87-.81,7.26,7.26,0,0,0-1.07-.67,6.7,6.7,0,0,0-1.93-.67,5.48,5.48,0,0,0-1.93-.05l-.1,0V570a8,8,0,0,1,1.82.29,10.75,10.75,0,0,1,2.19.87,11.16,11.16,0,0,1,1.84,1.16,9.46,9.46,0,0,1,1.43,1.4,6.76,6.76,0,0,1,1,1.71,4.89,4.89,0,0,1,.36,1.79,1.88,1.88,0,0,1-.84,1.75,2.36,2.36,0,0,1-2,.13v.15a7.18,7.18,0,0,1,1,.88A8.77,8.77,0,0,1,3849.57,581.3Z" transform="translate(-72.12 -68.77)"/><path class="cls-5" d="M3644.81,378.3l-.31.18C3643.73,379.07,3643.93,378.93,3644.81,378.3Z" transform="translate(-72.12 -68.77)"/><polygon class="cls-18" points="3671.93 455.13 3666.95 442.55 3673.65 367.51 3680.87 449.73 3676.72 457.82 3671.93 455.13"/><polygon class="cls-19" points="3670.32 455.76 3665.34 443.17 3672.05 368.14 3679.26 450.36 3675.11 458.45 3670.32 455.76"/><polygon class="cls-18" points="3672.88 454.82 3682.41 454.63 3798.98 520.68 3682.54 469.24 3672.71 459.74 3672.88 454.82"/><polygon class="cls-19" points="3671.54 455.63 3681.07 455.44 3797.63 521.5 3681.2 470.06 3671.37 460.55 3671.54 455.63"/><ellipse class="cls-20" cx="3744.42" cy="525.61" rx="6.37" ry="10.62" transform="translate(313.54 2193.42) rotate(-35.33)"/><path class="cls-21" d="M3749.8,531.44c0,4.65-3.6,6.52-8,4.18s-8-8-8-12.64,3.6-6.51,8-4.17S3749.8,526.8,3749.8,531.44Z" transform="translate(-72.12 -68.77)"/><path class="cls-2" d="M3750.3,406.19c0,3.39-2.63,4.75-5.88,3.05s-5.87-5.84-5.87-9.23,2.63-4.76,5.87-3.05S3750.3,402.8,3750.3,406.19Z" transform="translate(-72.12 -68.77)"/><path class="cls-2" d="M3808.1,456.06c-1.63,2.09-5.22,1.2-8-2s-3.77-7.43-2.15-9.52,5.22-1.2,8,2S3809.72,454,3808.1,456.06Z" transform="translate(-72.12 -68.77)"/><path class="cls-2" d="M3848.84,524.56c-2.81.22-6.4-2.67-8-6.46s-.66-7,2.15-7.26,6.4,2.68,8,6.46S3851.65,524.34,3848.84,524.56Z" transform="translate(-72.12 -68.77)"/><path class="cls-2" d="M3843,644c-2.81-3.17-3.77-7.43-2.15-9.52s5.21-1.2,8,2,3.77,7.43,2.15,9.52S3845.82,647.15,3843,644Z" transform="translate(-72.12 -68.77)"/><path class="cls-2" d="M3798,662.91c-1.63-3.79-.67-7,2.14-7.26s6.4,2.68,8,6.47.66,7-2.15,7.26S3799.62,666.7,3798,662.91Z" transform="translate(-72.12 -68.77)"/><path class="cls-2" d="M3738.63,645.07c0-3.39,2.63-4.76,5.87-3.05s5.88,5.83,5.88,9.22-2.63,4.76-5.87,3.06S3738.63,648.46,3738.63,645.07Z" transform="translate(-72.12 -68.77)"/><path class="cls-2" d="M3680.82,595.23c1.62-2.08,5.21-1.2,8,2s3.77,7.43,2.15,9.52-5.21,1.2-8-2S3679.2,597.32,3680.82,595.23Z" transform="translate(-72.12 -68.77)"/><path class="cls-2" d="M3640,526.75c2.81-.22,6.4,2.67,8,6.46s.67,7-2.14,7.26-6.4-2.67-8-6.46S3637.23,527,3640,526.75Z" transform="translate(-72.12 -68.77)"/><path class="cls-2" d="M3627.22,458c3.24,1.7,5.87,5.83,5.88,9.22s-2.63,4.76-5.87,3.06-5.87-5.83-5.88-9.22S3624,456.25,3627.22,458Z" transform="translate(-72.12 -68.77)"/><path class="cls-2" d="M3645.79,407.28c2.81,3.17,3.77,7.43,2.16,9.52s-5.21,1.21-8-2-3.78-7.43-2.16-9.52S3643,404.11,3645.79,407.28Z" transform="translate(-72.12 -68.77)"/><path class="cls-2" d="M3690.77,388.3c1.63,3.79.67,7-2.14,7.26s-6.4-2.66-8-6.45-.67-7,2.14-7.27S3689.15,384.51,3690.77,388.3Z" transform="translate(-72.12 -68.77)"/><path class="cls-8" d="M3742.28,429.84l-7.7-4v-1.53l3,1.57V415.76l-3-1.56v-1.37a9.34,9.34,0,0,0,1.29.57,2.83,2.83,0,0,0,1.05.25,1.16,1.16,0,0,0,.69-.27,1.49,1.49,0,0,0,.29-.9l1.48.78v13.52l2.9,1.54Z" transform="translate(-72.12 -68.77)"/><path class="cls-8" d="M3755.54,436.81l-9.64-5.07v-2.09c.67-.27,1.35-.51,2-.76a19.51,19.51,0,0,0,1.89-.82,9.25,9.25,0,0,0,2.51-1.65,2.93,2.93,0,0,0,.67-2,3.78,3.78,0,0,0-.73-2.22,5.59,5.59,0,0,0-2-1.73,7,7,0,0,0-1.89-.67,5.51,5.51,0,0,0-2-.06l-.09,0v-2.12a6.88,6.88,0,0,1,1.81.32,9.93,9.93,0,0,1,2.19.85,9.57,9.57,0,0,1,3.43,2.91,6.35,6.35,0,0,1,1.24,3.67,5.14,5.14,0,0,1-.2,1.5,3.14,3.14,0,0,1-.61,1.09,5,5,0,0,1-.87.77,11.81,11.81,0,0,1-1.22.69,19.92,19.92,0,0,1-2.11.94c-.73.29-1.4.55-2,.77l7.66,4Z" transform="translate(-72.12 -68.77)"/><path class="cls-8" d="M3801.49,474.86l-7.71-4.06v-1.53l3,1.57V460.77l-3-1.55v-1.38a10.91,10.91,0,0,0,1.3.58,3,3,0,0,0,1,.24,1,1,0,0,0,.7-.27,1.47,1.47,0,0,0,.29-.9l1.48.78V471.8l2.9,1.53Z" transform="translate(-72.12 -68.77)"/><path class="cls-8" d="M3833.71,524.43l-9.62-5.07v-2.09c.66-.27,1.33-.51,2-.76a17.39,17.39,0,0,0,1.88-.82,8.94,8.94,0,0,0,2.52-1.66,2.9,2.9,0,0,0,.68-2,3.84,3.84,0,0,0-.73-2.21,5.62,5.62,0,0,0-2-1.73,7.08,7.08,0,0,0-1.89-.67,5.52,5.52,0,0,0-2-.06l-.09,0v-2.12a7,7,0,0,1,1.82.32,10.54,10.54,0,0,1,2.19.85,9.62,9.62,0,0,1,3.42,2.91,6.28,6.28,0,0,1,1.24,3.67,4.81,4.81,0,0,1-.21,1.5,2.83,2.83,0,0,1-.6,1.09,4.42,4.42,0,0,1-.88.77,9.12,9.12,0,0,1-1.21.69,19.92,19.92,0,0,1-2.11.94c-.72.28-1.41.55-2,.77l7.65,4Z" transform="translate(-72.12 -68.77)"/><path class="cls-8" d="M3650.5,475.43a12,12,0,0,1-.42,3.34,4.1,4.1,0,0,1-1.3,2.06,3.09,3.09,0,0,1-2.16.62,7.17,7.17,0,0,1-3.09-1,9.88,9.88,0,0,1-.94-.54,6.12,6.12,0,0,1-.78-.59V477.4l.1.05a8.43,8.43,0,0,0,.77.7,7.18,7.18,0,0,0,1.14.73c1.4.73,2.51.87,3.31.4a3.57,3.57,0,0,0,1.39-3,5.11,5.11,0,0,1-1.67-.06,6.85,6.85,0,0,1-1.71-.66,10.22,10.22,0,0,1-1.58-1,8.26,8.26,0,0,1-1.45-1.45,7.87,7.87,0,0,1-1.25-2.23,7.19,7.19,0,0,1-.44-2.5c0-1.53.49-2.53,1.44-3a3.82,3.82,0,0,1,3.5.41,8.61,8.61,0,0,1,1.91,1.33,9.34,9.34,0,0,1,1.54,1.82,11.36,11.36,0,0,1,1.26,2.81A13.93,13.93,0,0,1,3650.5,475.43Zm-1.94-1.45a10.37,10.37,0,0,0-.3-2.68,6.44,6.44,0,0,0-.85-1.91,5.88,5.88,0,0,0-.95-1.15,5.3,5.3,0,0,0-1.12-.79,2.22,2.22,0,0,0-2.18-.24,2.34,2.34,0,0,0-.8,2.13,5.28,5.28,0,0,0,.26,1.7,5.36,5.36,0,0,0,1.82,2.43,7.89,7.89,0,0,0,1.14.71,6.25,6.25,0,0,0,1.51.58,4.34,4.34,0,0,0,1.44.15c0-.15,0-.29,0-.41S3648.56,474.19,3648.56,474Z" transform="translate(-72.12 -68.77)"/><path class="cls-8" d="M3663,434.67l-7.7-4.06v-1.52l3,1.55V420.59l-3-1.57v-1.37a10.91,10.91,0,0,0,1.3.58,3.27,3.27,0,0,0,1,.25,1,1,0,0,0,.68-.28,1.32,1.32,0,0,0,.3-.9l1.49.78v13.53l2.89,1.53Z" transform="translate(-72.12 -68.77)"/><path class="cls-8" d="M3676.28,434.12c0,2.7-.41,4.46-1.21,5.3s-2,.82-3.72-.07a8.11,8.11,0,0,1-3.73-3.88,15.28,15.28,0,0,1-1.2-6.52q0-4,1.2-5.27c.79-.86,2-.84,3.73.05a8.27,8.27,0,0,1,3.75,3.91A15.57,15.57,0,0,1,3676.28,434.12Zm-2.53,3.25a5.13,5.13,0,0,0,.46-1.68,22.79,22.79,0,0,0,.13-2.59c0-1-.05-1.92-.13-2.73a9.58,9.58,0,0,0-.47-2.15,5,5,0,0,0-.9-1.65,4.9,4.9,0,0,0-1.49-1.18,2.49,2.49,0,0,0-1.48-.38,1.24,1.24,0,0,0-.94.7,4.65,4.65,0,0,0-.44,1.7,24.41,24.41,0,0,0-.13,2.56c0,1.06,0,2,.11,2.7a10.6,10.6,0,0,0,.45,2.13,5.06,5.06,0,0,0,.9,1.67,4.51,4.51,0,0,0,1.53,1.22,2.6,2.6,0,0,0,1.49.39A1.16,1.16,0,0,0,3673.75,437.37Z" transform="translate(-72.12 -68.77)"/><path class="cls-8" d="M3694.25,419.26l-7.7-4.05v-1.53l3,1.56V405.18l-3-1.55v-1.39a9.39,9.39,0,0,0,1.29.58,3.05,3.05,0,0,0,1,.25,1,1,0,0,0,.68-.28,1.37,1.37,0,0,0,.3-.89l1.48.77V416.2l2.9,1.53Z" transform="translate(-72.12 -68.77)"/><path class="cls-8" d="M3706.7,425.8l-7.71-4.05v-1.53l3,1.56V411.72l-3-1.56V408.8a12.36,12.36,0,0,0,1.28.56,3.15,3.15,0,0,0,1.05.25,1.06,1.06,0,0,0,.7-.28,1.29,1.29,0,0,0,.28-.89l1.48.77v13.53l2.92,1.53Z" transform="translate(-72.12 -68.77)"/><path class="cls-8" d="M3835.75,628.31l-2.1-1.1v4.22l-1.84-1v-4.22l-6.82-3.58v-2.31l6.89-4.85,1.77.93v9.17l2.1,1.11Zm-3.94-3.69v-6.78l-5.52,3.88Z" transform="translate(-72.12 -68.77)"/><path class="cls-8" d="M3802.2,643.08a4.22,4.22,0,0,1-.38,1.82,2.24,2.24,0,0,1-1,1.09,2.92,2.92,0,0,1-1.64.22,6.87,6.87,0,0,1-2.22-.79,17.27,17.27,0,0,1-2.24-1.43,19.51,19.51,0,0,1-1.82-1.58v-2.13l.13.07a17.85,17.85,0,0,0,1.84,1.86,10.29,10.29,0,0,0,2.07,1.45,4.84,4.84,0,0,0,1.32.49,1.69,1.69,0,0,0,1.12-.1,1.54,1.54,0,0,0,.64-.71,3.33,3.33,0,0,0,.22-1.29,3.8,3.8,0,0,0-.27-1.44,4.09,4.09,0,0,0-.69-1.22,6.46,6.46,0,0,0-1.21-1.18,14,14,0,0,0-1.59-1,14.89,14.89,0,0,0-1.62-.73c-.52-.19-1-.35-1.35-.46V628.3l8.57,4.49v1.77l-6.72-3.54v4c.27.11.56.25.84.39l.75.37a15.4,15.4,0,0,1,2,1.27,9.13,9.13,0,0,1,1.59,1.58,7.64,7.64,0,0,1,1.18,2A6.63,6.63,0,0,1,3802.2,643.08Z" transform="translate(-72.12 -68.77)"/><path class="cls-8" d="M3750.45,635.88c0,1.53-.48,2.53-1.44,3a3.81,3.81,0,0,1-3.51-.4,9.25,9.25,0,0,1-3.42-3.16,10.27,10.27,0,0,1-1.26-2.88,12.89,12.89,0,0,1-.46-3.56,11.7,11.7,0,0,1,.41-3.34,4.18,4.18,0,0,1,1.3-2,3.12,3.12,0,0,1,2.16-.65,7.93,7.93,0,0,1,3.12,1c.37.2.68.39.93.54s.51.37.77.59v1.93l-.1,0a5.36,5.36,0,0,0-.81-.72,7.17,7.17,0,0,0-1.09-.7c-1.37-.73-2.45-.85-3.28-.38a3.46,3.46,0,0,0-1.42,2.92,5.3,5.3,0,0,1,1.59,0,6.81,6.81,0,0,1,1.79.67,11,11,0,0,1,1.6,1,8.73,8.73,0,0,1,1.42,1.47,7.58,7.58,0,0,1,1.26,2.21A6.89,6.89,0,0,1,3750.45,635.88Zm-1.95-.94a4.8,4.8,0,0,0-.27-1.69,5,5,0,0,0-.86-1.52,4.79,4.79,0,0,0-1-.94,10.42,10.42,0,0,0-1.12-.68,6.39,6.39,0,0,0-1.51-.6,5.19,5.19,0,0,0-1.43-.12l0,.4v.53a10.17,10.17,0,0,0,.29,2.67,7,7,0,0,0,.88,1.91,5.67,5.67,0,0,0,.94,1.15,5.34,5.34,0,0,0,1.11.79,2.26,2.26,0,0,0,2.18.26C3748.23,636.78,3748.5,636.06,3748.5,634.94Z" transform="translate(-72.12 -68.77)"/><path class="cls-8" d="M3702.09,586.74l-6.45,9.38-2-1.08,6.85-9.64-8.09-4.26v-1.75l9.73,5.11Z" transform="translate(-72.12 -68.77)"/><path class="cls-5" d="M3666.82,543a2.32,2.32,0,0,1-1.43,2.48,4.55,4.55,0,0,1-3.62-.61,10,10,0,0,1-3.69-3.2,6.94,6.94,0,0,1-1.37-4,2.52,2.52,0,0,1,.69-1.9,2.57,2.57,0,0,1,1.94-.58v-.07a11.32,11.32,0,0,1-1.7-2.3,4.77,4.77,0,0,1-.54-2.2,2,2,0,0,1,1.32-2.13,4.43,4.43,0,0,1,3.35.64,9.9,9.9,0,0,1,3.41,2.86,6,6,0,0,1,1.27,3.42,2.42,2.42,0,0,1-.6,1.68,2.18,2.18,0,0,1-1.78.61v.05a11.81,11.81,0,0,1,2,2.57A5.33,5.33,0,0,1,3666.82,543Zm-2-.84a4,4,0,0,0-.37-1.69,8.6,8.6,0,0,0-1.53-1.92c-.3-.32-.63-.62-1-.93s-.84-.75-1.43-1.29a1.91,1.91,0,0,0-1.39.62,2.32,2.32,0,0,0-.52,1.64,4.92,4.92,0,0,0,.9,2.72,6.19,6.19,0,0,0,2.25,2.07,2.8,2.8,0,0,0,2.23.41C3664.58,543.63,3664.85,543.08,3664.85,542.2Zm-.3-7.68a3.51,3.51,0,0,0-.78-2.13,5.89,5.89,0,0,0-2-1.7,2.79,2.79,0,0,0-2-.43c-.51.13-.78.54-.78,1.23a3.23,3.23,0,0,0,.39,1.46,7.32,7.32,0,0,0,1.17,1.55c.24.25.58.59,1,1s.87.82,1.3,1.17a1.92,1.92,0,0,0,1.3-.69A2.52,2.52,0,0,0,3664.55,534.52Z" transform="translate(-72.12 -68.77)"/><path class="cls-22" d="M3618.84,481.84c0-78.27,60.71-109.8,135.59-70.42,38.34,20.17,73,55,97.61,94.76-24.51-49.53-65.14-94.88-111.16-119.07-74.88-39.39-135.58-7.86-135.58,70.41,0,38.19,14.48,80.44,38,118.28C3627.89,544.73,3618.84,512,3618.84,481.84Z" transform="translate(-72.12 -68.77)"/><path class="cls-11" d="M4021.84,487.47l-.05,0-30.22,16.21-20.47,10.95-36.19-70.9,42.1-22.54,8.65-4.62A548.82,548.82,0,0,1,4021.84,487.47Z" transform="translate(-72.12 -68.77)"/><path class="cls-23" d="M3605,935.82l-6.85-3.62,0-14.49,0-22.54,66.16,35c-2.29-45.18-13.12-92.49-30.87-139.26l-59.14,4.39-8.4-19.65-9.29-21.82,59.19-4.44a660.8,660.8,0,0,0-86.33-136.68l-35.34,45.23-15.95-18-14.76-16.71,35.38-45.41c-36.28-38.39-76.78-71.62-119.72-96.75V557l-35.44-18.65V462.39c-41.85-19.47-81.41-28.88-117-29.2l18.63,44.5,17.6,42-31,1.9-22.11-52.75-9.2-22-4.77-11.41c-26.94,4.17-50.94,14.26-71,29.88l-.05.05c-1.79,1.31-3.53,2.76-5.27,4.3a135.16,135.16,0,0,0-12.22,11.64l63.76,73L3153,576.71l-63.37-72.49c-18.29,28.71-29.32,65.65-31.31,109.84l73,39.12-.3,36.94-72.26-38.71c2.93,46.36,14.81,94.76,33.75,142.48l61.82-4.08,17.5,41.47-61,4A658,658,0,0,0,3199.15,971l34.69-43.6,30.67,35-34.35,43c36,37,76,68.87,118.09,92.95l.4-69.31,35.54,18.92-.45,68.5c41.7,18.79,81.06,27.53,116.35,27.08l-32.36-76.29,30.87-2.18,32.05,75.66c4.72-.82,9.4-1.86,13.92-3.08a149.43,149.43,0,0,0,21.77-7.52l.15-.09q2.09-.88,4.17-1.9a144.65,144.65,0,0,0,44.68-32.46l-8.15-9.24-24.25-27.57-23.86-27.07,17.89-22.68,13.22,15,42.89,48.67c17.75-27.76,28.73-63.25,31.22-105.58l-35-18.57Zm-243.58,6.3c-81.21-42.74-147.06-146.2-147.06-231.08s65.85-119.12,147.06-76.43,147.12,146.19,147.12,231.13S3442.68,984.81,3361.42,942.12Z" transform="translate(-72.12 -68.77)"/><polygon class="cls-23" points="3224.7 1056.55 3276.13 1029.55 3276.53 960.23 3225.13 987.26 3224.7 1056.55"/><path class="cls-24" d="M3498.89,577.79l-51.38,27-68.34-55.23L3343.73,521l-15.95-12.91,15.95-8.37L3379.17,481C3422.11,506.17,3462.61,539.4,3498.89,577.79Z" transform="translate(-72.12 -68.77)"/><polygon class="cls-24" points="3339.97 581.46 3370.7 616.2 3422.1 589.16 3391.39 554.44 3339.97 581.46"/><path class="cls-24" d="M3615.89,749.38,3566,775.64l-1.49.77-86.23-136.5-.1-.18,51.39-27A660.8,660.8,0,0,1,3615.89,749.38Z" transform="translate(-72.12 -68.77)"/><path class="cls-24" d="M3343.73,462.39l-51.44,27-46.92-11.73-35.48-8.83-34.59-8.64,25.39-13.36,26-13.67C3262.32,433.51,3301.88,442.92,3343.73,462.39Z" transform="translate(-72.12 -68.77)"/><polygon class="cls-24" points="3220.18 496.59 3255.65 515.25 3307.05 488.2 3271.61 469.55 3220.18 496.59"/><path class="cls-24" d="M3195.92,435.45l-51.44,27a21.89,21.89,0,0,1-3.9,1.13l-4,1.16a44.05,44.05,0,0,0-5.81,2.54l-6.06,2.73-12.12,5.47c-5.33,2.41-10.66,4.82-16.09,7a36,36,0,0,1-5.58,1.9c3.69-2.95,7.5-5.76,11.42-8.47a326.74,326.74,0,0,1,29.57-17.9c10.25-5.58,20.46-11,31.67-14.87,5.19-1.77,10.48-3.27,15.84-4.54q4.1-1,8.24-1.77c1.39-.27,2.79-.53,4.19-.77C3193,435.92,3195,436,3195.92,435.45Z" transform="translate(-72.12 -68.77)"/><polygon class="cls-24" points="2966.15 462.46 3029.51 534.98 3080.91 507.94 3017.54 435.46 2966.15 462.46"/><polygon class="cls-24" points="3540.76 925.47 3592.18 898.43 3526.03 863.43 3474.6 890.45 3540.76 925.47"/><path class="cls-23" d="M3664.4,930.16l-35.14,18.47L3613,957.19l-8-21.37-6.8-18.11-10.34-27.52-5.77-72.26,51.44-27C3651.28,837.67,3662.11,885,3664.4,930.16Z" transform="translate(-72.12 -68.77)"/><polygon class="cls-24" points="3450.84 753.55 3502.27 726.52 3561.41 722.13 3509.98 749.16 3450.84 753.55"/><polygon class="cls-24" points="3491.82 1053.92 3435.56 990 3486.96 962.99 3543.22 1026.87 3491.82 1053.92"/><path class="cls-23" d="M3664.3,967.2c-2.49,42.33-13.47,77.82-31.22,105.58l-25.89,13.62-25.54,13.41,1.29-41,.79-26.21,6.46-8.51,22.67-29.88Z" transform="translate(-72.12 -68.77)"/><path class="cls-23" d="M3615.34,1095.64a144.65,144.65,0,0,1-44.68,32.46l-.3-.13-3.87,2-.15.09-38.82,20.65,17.05-13.13,19.38-14.94Z" transform="translate(-72.12 -68.77)"/><polygon class="cls-23" points="3376.55 1101.77 3427.97 1074.73 3395.61 998.44 3344.18 1025.45 3376.55 1101.77"/><polygon class="cls-24" points="2935.24 609.67 3007.47 648.37 3058.89 621.36 2986.63 582.64 2935.24 609.67"/><polygon class="cls-24" points="2987.24 793.58 3038.66 766.55 3099.7 762.52 3048.27 789.55 2987.24 793.58"/><polygon class="cls-23" points="3075.6 929.27 3127.03 902.23 3161.72 858.64 3110.34 885.68 3075.6 929.27"/><path class="cls-3" d="M3546.85,922.17l66.15,35c-2.28-45.21-13.12-92.48-30.9-139.27l-59.14,4.4-17.69-41.47,59.23-4.44a660.5,660.5,0,0,0-86.35-136.7L3442.82,685l-30.73-34.75,35.42-45.39c-36.29-38.38-76.83-71.63-119.74-96.76V584l-35.47-18.65V489.41c-41.84-19.48-81.39-28.9-117-29.18l36.24,86.51-30.94,1.9-36.11-86.17c-35.3,5.47-65.51,21.11-88.54,45.85l63.74,73-18.07,22.44-63.36-72.51c-18.29,28.71-29.36,65.68-31.34,109.86l73,39.09-.3,37-72.22-38.71c2.92,46.35,14.76,94.78,33.7,142.49l61.85-4.1,17.47,41.5-61,4A662,662,0,0,0,3147.72,998l34.74-43.59,30.64,34.92-34.34,43c36,37,75.92,68.86,118.06,92.92l.43-69.29,35.51,18.9-.43,68.52c41.71,18.79,81.05,27.51,116.34,27.09l-32.37-76.33,30.86-2.17,32.07,75.67c33.62-5.94,62.45-21.28,84.71-45l-56.26-63.91,17.86-22.69,56.13,63.72c17.73-27.75,28.71-63.24,31.2-105.56l-66.15-35Zm-236.82,47C3228.81,926.41,3163,822.94,3163,738s65.85-119.1,147.07-76.39,147.08,146.19,147.08,231.09S3391.25,1011.84,3310,969.13Z" transform="translate(-72.12 -68.77)"/><ellipse class="cls-25" cx="3307.97" cy="815.06" rx="117.61" ry="196.01" transform="translate(65.72 1994.19) rotate(-35.33)"/><path class="cls-9" d="M3308.91,813.31l-109,51.38a293.85,293.85,0,0,1-30.43-66.35Z" transform="translate(-72.12 -68.77)"/><path class="cls-5" d="M3314.78,965.63c-82-43.13-148.5-147.6-148.5-233.34,0-36.83,12.29-64.18,32.79-80-24.57,14.77-39.61,43.92-39.61,84.67,0,85.74,66.49,190.21,148.51,233.34,46.78,24.61,88.49,23.91,115.71,2.89C3396.56,989.48,3357.82,988.27,3314.78,965.63Z" transform="translate(-72.12 -68.77)"/><path class="cls-23" d="M3440.22,885.72c-3.55-1.87-6.44-6.39-6.44-10.1s2.88-5.22,6.43-3.35,6.44,6.39,6.44,10.11S3443.77,887.59,3440.22,885.72Z" transform="translate(-72.12 -68.77)"/><path class="cls-26" d="M3426.54,872.52a7.25,7.25,0,0,1,.82,1.62,5.8,5.8,0,0,1,.33,2,3.94,3.94,0,0,1-.39,1.86,2.33,2.33,0,0,1-1.09,1.06,3.12,3.12,0,0,1-1.85.17,8.43,8.43,0,0,1-2.33-.85,18.25,18.25,0,0,1-2.55-1.67,23.16,23.16,0,0,1-2.06-1.8v-2.31l.16.09a17.33,17.33,0,0,0,2.09,2.12,12.79,12.79,0,0,0,2.32,1.64,5.77,5.77,0,0,0,1.41.5,2,2,0,0,0,1.2-.05,1.6,1.6,0,0,0,.72-.69,3.2,3.2,0,0,0,.23-1.36,4.61,4.61,0,0,0-.27-1.61,4.44,4.44,0,0,0-.73-1.29,6.14,6.14,0,0,0-1.14-1.07A12.19,12.19,0,0,0,3422,870l-.94-.5v-1.83l.73.39a4.05,4.05,0,0,0,2.54.64c.63-.14.95-.66.95-1.56A3.06,3.06,0,0,0,3425,866a4.65,4.65,0,0,0-.67-1.09,6.28,6.28,0,0,0-1-.9,8.91,8.91,0,0,0-1.16-.72,7.78,7.78,0,0,0-2.11-.74,6.09,6.09,0,0,0-2.12,0l-.1,0v-2.31a8.21,8.21,0,0,1,2,.33,11.18,11.18,0,0,1,2.4.94,13.13,13.13,0,0,1,2,1.28,9.47,9.47,0,0,1,1.57,1.53,7.38,7.38,0,0,1,1.15,1.88,5.14,5.14,0,0,1,.38,2,2,2,0,0,1-.92,1.91,2.54,2.54,0,0,1-2.16.14v.16a10.45,10.45,0,0,1,1.16,1A8.6,8.6,0,0,1,3426.54,872.52Z" transform="translate(-72.12 -68.77)"/><path class="cls-5" d="M3202.74,650.19l-.34.19C3201.56,651,3201.77,650.87,3202.74,650.19Z" transform="translate(-72.12 -68.77)"/><polygon class="cls-23" points="3239.32 740.89 3233.86 727.11 3241.21 644.91 3249.11 734.98 3244.56 743.84 3239.32 740.89"/><polygon class="cls-27" points="3237.56 741.58 3232.11 727.79 3239.45 645.6 3247.35 735.66 3242.8 744.52 3237.56 741.58"/><polygon class="cls-23" points="3240.36 740.55 3250.8 740.34 3378.48 812.69 3250.94 756.35 3240.18 745.94 3240.36 740.55"/><polygon class="cls-27" points="3238.89 741.44 3249.33 741.23 3377.01 813.58 3249.47 757.24 3238.7 746.83 3238.89 741.44"/><path class="cls-23" d="M3320.66,816.16c0,5.09-3.95,7.14-8.81,4.58S3303,812,3303,806.9s3.94-7.14,8.81-4.58S3320.66,811.08,3320.66,816.16Z" transform="translate(-72.12 -68.77)"/><path class="cls-28" d="M3317.74,817.92c0,5.09-3.94,7.14-8.81,4.58s-8.81-8.76-8.81-13.84,3.94-7.14,8.81-4.58S3317.74,812.84,3317.74,817.92Z" transform="translate(-72.12 -68.77)"/><path class="cls-23" d="M3318.28,680.73c0,3.71-2.88,5.21-6.43,3.34s-6.44-6.4-6.44-10.11,2.88-5.21,6.44-3.34S3318.28,677,3318.28,680.73Z" transform="translate(-72.12 -68.77)"/><path class="cls-23" d="M3381.59,735.35c-1.78,2.29-5.71,1.32-8.79-2.15s-4.13-8.15-2.35-10.43,5.71-1.31,8.78,2.16S3383.37,733.07,3381.59,735.35Z" transform="translate(-72.12 -68.77)"/><path class="cls-23" d="M3426.22,810.38c-3.08.24-7-2.93-8.79-7.08s-.72-7.7,2.36-7.94,7,2.93,8.78,7.08S3429.3,810.14,3426.22,810.38Z" transform="translate(-72.12 -68.77)"/><path class="cls-23" d="M3419.83,941.19c-3.07-3.48-4.13-8.14-2.35-10.43s5.7-1.32,8.78,2.16,4.13,8.14,2.36,10.42S3422.91,944.66,3419.83,941.19Z" transform="translate(-72.12 -68.77)"/><path class="cls-23" d="M3370.53,961.93c-1.78-4.15-.73-7.71,2.35-8s7,2.93,8.79,7.08.72,7.71-2.35,8S3372.31,966.08,3370.53,961.93Z" transform="translate(-72.12 -68.77)"/><path class="cls-23" d="M3305.5,942.38c0-3.71,2.88-5.21,6.43-3.34s6.44,6.39,6.44,10.1-2.88,5.21-6.43,3.35S3305.51,946.1,3305.5,942.38Z" transform="translate(-72.12 -68.77)"/><path class="cls-23" d="M3242.18,887.8c1.77-2.29,5.71-1.33,8.78,2.15s4.14,8.14,2.37,10.42-5.71,1.32-8.79-2.15S3240.41,890.08,3242.18,887.8Z" transform="translate(-72.12 -68.77)"/><path class="cls-23" d="M3197.51,812.78c3.08-.24,7,2.92,8.79,7.08s.73,7.71-2.34,7.95-7-2.93-8.79-7.08S3194.44,813,3197.51,812.78Z" transform="translate(-72.12 -68.77)"/><path class="cls-23" d="M3183.47,737.43c3.55,1.86,6.43,6.39,6.44,10.1s-2.87,5.22-6.43,3.35-6.43-6.38-6.44-10.1S3179.92,735.57,3183.47,737.43Z" transform="translate(-72.12 -68.77)"/><path class="cls-23" d="M3203.81,681.93c3.08,3.47,4.14,8.14,2.36,10.42s-5.7,1.33-8.78-2.15-4.14-8.14-2.37-10.42S3200.73,678.45,3203.81,681.93Z" transform="translate(-72.12 -68.77)"/><path class="cls-23" d="M3253.08,661.13c1.78,4.15.73,7.71-2.34,8s-7-2.92-8.79-7.07-.73-7.71,2.34-8S3251.3,657,3253.08,661.13Z" transform="translate(-72.12 -68.77)"/><path class="cls-26" d="M3309,706.62l-8.43-4.43v-1.68l3.24,1.7v-11l-3.24-1.71V688a13,13,0,0,0,1.41.63,3.47,3.47,0,0,0,1.15.26,1.07,1.07,0,0,0,.75-.3,1.44,1.44,0,0,0,.32-1l1.62.86v14.81L3309,705Z" transform="translate(-72.12 -68.77)"/><path class="cls-26" d="M3323.54,714.26,3313,708.71V706.4l2.21-.83a19.43,19.43,0,0,0,2.05-.89,9.61,9.61,0,0,0,2.76-1.82,3.18,3.18,0,0,0,.74-2.22,4.11,4.11,0,0,0-.81-2.42,6.13,6.13,0,0,0-2.22-1.9,8,8,0,0,0-2.07-.73,6.06,6.06,0,0,0-2.16-.06l-.11,0v-2.32a7.69,7.69,0,0,1,2,.34,11.18,11.18,0,0,1,2.4.94,10.25,10.25,0,0,1,3.76,3.2,6.85,6.85,0,0,1,1.36,4,5.27,5.27,0,0,1-.22,1.63,3.23,3.23,0,0,1-.67,1.19,4.6,4.6,0,0,1-1,.84,11,11,0,0,1-1.33.77,24.15,24.15,0,0,1-2.31,1l-2.23.84,8.38,4.41Z" transform="translate(-72.12 -68.77)"/><path class="cls-26" d="M3373.88,755.93l-8.44-4.44v-1.68l3.24,1.71v-11l-3.24-1.7v-1.5a11.32,11.32,0,0,0,1.41.62,3.25,3.25,0,0,0,1.14.27,1.1,1.1,0,0,0,.76-.31,1.52,1.52,0,0,0,.32-1l1.62.85v14.82l3.19,1.67Z" transform="translate(-72.12 -68.77)"/><path class="cls-26" d="M3409.17,810.23l-10.56-5.55v-2.31l2.21-.83a19.43,19.43,0,0,0,2-.89,9.61,9.61,0,0,0,2.75-1.81,3.17,3.17,0,0,0,.75-2.22,4.18,4.18,0,0,0-.8-2.43,6.2,6.2,0,0,0-2.24-1.9,7.75,7.75,0,0,0-2.06-.73,6.06,6.06,0,0,0-2.16-.06l-.11,0v-2.32a8.16,8.16,0,0,1,2,.34,11.46,11.46,0,0,1,2.41.94,10.39,10.39,0,0,1,3.75,3.2,6.89,6.89,0,0,1,1.37,4,5.3,5.3,0,0,1-.23,1.63,3.23,3.23,0,0,1-.67,1.19,4.3,4.3,0,0,1-1,.84,13.82,13.82,0,0,1-1.34.77c-.75.38-1.52.72-2.31,1l-2.23.84,8.39,4.41Z" transform="translate(-72.12 -68.77)"/><path class="cls-26" d="M3208.48,756.54a12.5,12.5,0,0,1-.46,3.66,4.45,4.45,0,0,1-1.41,2.26,3.45,3.45,0,0,1-2.39.68,8.25,8.25,0,0,1-3.37-1.08c-.36-.19-.7-.4-1-.6a6.89,6.89,0,0,1-.86-.65V758.7l.1.06a8.24,8.24,0,0,0,.86.76,7.66,7.66,0,0,0,1.23.8c1.55.81,2.76,1,3.63.44s1.39-1.59,1.52-3.23a5.49,5.49,0,0,1-1.82-.08,7.18,7.18,0,0,1-1.88-.72,12.35,12.35,0,0,1-1.74-1.11,10,10,0,0,1-1.57-1.6,8.63,8.63,0,0,1-1.38-2.44,7.72,7.72,0,0,1-.47-2.73c0-1.68.53-2.77,1.57-3.27a4.21,4.21,0,0,1,3.83.44,9.63,9.63,0,0,1,2.09,1.47,9.79,9.79,0,0,1,1.69,2,11.61,11.61,0,0,1,1.37,3.08A14.71,14.71,0,0,1,3208.48,756.54Zm-2.11-1.58A10.87,10.87,0,0,0,3206,752a7.21,7.21,0,0,0-.92-2.1,6.38,6.38,0,0,0-1.05-1.26,5.68,5.68,0,0,0-1.23-.86,2.38,2.38,0,0,0-2.38-.26c-.58.35-.87,1.13-.87,2.33a5.6,5.6,0,0,0,.28,1.86,5.8,5.8,0,0,0,.95,1.66,5.16,5.16,0,0,0,1,1,8.88,8.88,0,0,0,1.25.78,7.3,7.3,0,0,0,1.65.64,4.89,4.89,0,0,0,1.58.15c0-.15,0-.3,0-.44A4.71,4.71,0,0,0,3206.37,755Z" transform="translate(-72.12 -68.77)"/><path class="cls-26" d="M3222.22,711.91l-8.44-4.44v-1.68l3.25,1.71v-11l-3.25-1.7v-1.51a10.72,10.72,0,0,0,1.42.63,3.21,3.21,0,0,0,1.14.27,1.12,1.12,0,0,0,.76-.31,1.46,1.46,0,0,0,.31-1l1.63.85v14.82l3.18,1.67Z" transform="translate(-72.12 -68.77)"/><path class="cls-26" d="M3236.72,711.31q0,4.43-1.32,5.8t-4.08-.07a9,9,0,0,1-4.09-4.25,17,17,0,0,1-1.3-7.13q0-4.38,1.31-5.79t4.08.06a9,9,0,0,1,4.1,4.28A17,17,0,0,1,3236.72,711.31Zm-2.76,3.56a5.26,5.26,0,0,0,.5-1.84,25,25,0,0,0,.13-2.84,29.33,29.33,0,0,0-.13-3,10.21,10.21,0,0,0-.51-2.37,5.69,5.69,0,0,0-1-1.8,5.34,5.34,0,0,0-1.64-1.29,2.84,2.84,0,0,0-1.62-.43,1.4,1.4,0,0,0-1,.77,5,5,0,0,0-.49,1.88,26.29,26.29,0,0,0-.13,2.81q0,1.72.12,2.94a9.47,9.47,0,0,0,.49,2.33,5.54,5.54,0,0,0,1,1.83,5.39,5.39,0,0,0,1.67,1.34,2.92,2.92,0,0,0,1.64.43A1.32,1.32,0,0,0,3234,714.87Z" transform="translate(-72.12 -68.77)"/><path class="cls-26" d="M3256.41,695l-8.44-4.44v-1.67l3.25,1.7v-11l-3.25-1.7v-1.5a11.32,11.32,0,0,0,1.41.62,3.29,3.29,0,0,0,1.15.27,1.12,1.12,0,0,0,.75-.3,1.49,1.49,0,0,0,.33-1l1.62.85v14.82l3.18,1.67Z" transform="translate(-72.12 -68.77)"/><path class="cls-26" d="M3270,702.2l-8.44-4.44v-1.68l3.25,1.71v-11l-3.25-1.71v-1.49a13,13,0,0,0,1.41.62,3.25,3.25,0,0,0,1.15.27,1.1,1.1,0,0,0,.75-.31,1.41,1.41,0,0,0,.32-1l1.62.85v14.82l3.19,1.67Z" transform="translate(-72.12 -68.77)"/><path class="cls-26" d="M3411.41,924l-2.31-1.21v4.62l-2-1v-4.63l-7.46-3.92v-2.54l7.54-5.3,1.93,1v10l2.31,1.22Zm-4.32-4v-7.42l-6,4.24Z" transform="translate(-72.12 -68.77)"/><path class="cls-26" d="M3374.64,940.19a4.66,4.66,0,0,1-.4,2,2.52,2.52,0,0,1-1.09,1.2,3.06,3.06,0,0,1-1.79.24,7.24,7.24,0,0,1-2.42-.86,16.4,16.4,0,0,1-2.45-1.57,18.49,18.49,0,0,1-2-1.73v-2.33l.14.08a19.16,19.16,0,0,0,2,2,12,12,0,0,0,2.26,1.59,5.82,5.82,0,0,0,1.44.54,1.9,1.9,0,0,0,1.24-.12,1.5,1.5,0,0,0,.7-.78,3.44,3.44,0,0,0,.23-1.4,4.48,4.48,0,0,0-.27-1.58,5.31,5.31,0,0,0-.77-1.35,6.76,6.76,0,0,0-1.33-1.28,13.26,13.26,0,0,0-1.74-1.09,14.17,14.17,0,0,0-1.77-.8q-.86-.32-1.47-.51V924l9.37,4.94v1.92l-7.35-3.86v4.37l.92.42c.31.14.58.29.82.4a15.6,15.6,0,0,1,2.21,1.4,9.48,9.48,0,0,1,1.75,1.72,8.34,8.34,0,0,1,1.3,2.25A7.48,7.48,0,0,1,3374.64,940.19Z" transform="translate(-72.12 -68.77)"/><path class="cls-26" d="M3318,932.31c0,1.67-.52,2.76-1.57,3.27a4.18,4.18,0,0,1-3.83-.44,9.7,9.7,0,0,1-2.09-1.47,10.37,10.37,0,0,1-1.67-2,11.3,11.3,0,0,1-1.38-3.16,14.46,14.46,0,0,1-.49-3.9,12.53,12.53,0,0,1,.44-3.64,4.54,4.54,0,0,1,1.42-2.26,3.37,3.37,0,0,1,2.38-.7,8.16,8.16,0,0,1,3.38,1.08c.42.22.76.42,1,.6a9.18,9.18,0,0,1,.85.65v2.11l-.1-.06a8.1,8.1,0,0,0-.89-.78,8.86,8.86,0,0,0-1.21-.78c-1.49-.79-2.69-.93-3.59-.4s-1.41,1.58-1.56,3.19a6,6,0,0,1,1.74,0,7.13,7.13,0,0,1,2,.75,12,12,0,0,1,1.75,1.11,10,10,0,0,1,1.56,1.6,8.72,8.72,0,0,1,1.38,2.43A7.92,7.92,0,0,1,3318,932.31Zm-2.13-1a5.66,5.66,0,0,0-.28-1.85,6.07,6.07,0,0,0-.95-1.67,5.47,5.47,0,0,0-1.07-1,10.24,10.24,0,0,0-1.22-.75,7.35,7.35,0,0,0-1.66-.65,5.47,5.47,0,0,0-1.57-.14l0,.45c0,.15,0,.34,0,.57a11.07,11.07,0,0,0,.34,2.93,7.35,7.35,0,0,0,.94,2.08,6.73,6.73,0,0,0,1,1.27,6.15,6.15,0,0,0,1.22.87,2.42,2.42,0,0,0,2.38.27C3315.55,933.28,3315.84,932.5,3315.84,931.28Z" transform="translate(-72.12 -68.77)"/><path class="cls-26" d="M3265,878.48l-7,10.26-2.24-1.18,7.5-10.55-8.87-4.67V870.4L3265,876Z" transform="translate(-72.12 -68.77)"/><path class="cls-5" d="M3226.36,830.61a2.56,2.56,0,0,1-1.57,2.72,5,5,0,0,1-4-.67,11.07,11.07,0,0,1-4-3.51,7.54,7.54,0,0,1-1.5-4.32,2.48,2.48,0,0,1,2.88-2.72V822a12,12,0,0,1-1.86-2.52,5.19,5.19,0,0,1-.6-2.42,2.17,2.17,0,0,1,1.44-2.33,4.85,4.85,0,0,1,3.68.7,10.56,10.56,0,0,1,3.72,3.14,6.36,6.36,0,0,1,1.4,3.73,2.65,2.65,0,0,1-.66,1.85,2.31,2.31,0,0,1-1.94.66v.07a12.63,12.63,0,0,1,2.24,2.81A5.76,5.76,0,0,1,3226.36,830.61Zm-2.15-.92a3.91,3.91,0,0,0-.43-1.85,9.5,9.5,0,0,0-1.65-2.11q-.49-.5-1.08-1c-.39-.34-.91-.81-1.56-1.4a2.07,2.07,0,0,0-1.51.67,2.59,2.59,0,0,0-.57,1.8,5.37,5.37,0,0,0,1,3,6.54,6.54,0,0,0,2.47,2.27,3.07,3.07,0,0,0,2.44.46C3223.91,831.25,3224.21,830.65,3224.21,829.69Zm-.33-8.41A3.82,3.82,0,0,0,3223,819a6.46,6.46,0,0,0-2.2-1.87,3.19,3.19,0,0,0-2.17-.47c-.55.15-.84.59-.84,1.34a3.35,3.35,0,0,0,.43,1.61,8,8,0,0,0,1.28,1.7l1.11,1.11c.49.46,1,.89,1.42,1.27a2,2,0,0,0,1.43-.76A2.72,2.72,0,0,0,3223.88,821.28Z" transform="translate(-72.12 -68.77)"/><path class="cls-22" d="M3174.3,763.59c0-85.73,66.49-120.27,148.5-77.13,42,22.09,79.91,60.28,106.92,103.79C3402.87,736,3358.37,686.33,3308,659.82c-82-43.13-148.51-8.6-148.51,77.14,0,41.82,15.86,88.1,41.59,129.54C3184.21,832.47,3174.3,796.64,3174.3,763.59Z" transform="translate(-72.12 -68.77)"/><text class="cls-29" transform="translate(28.71 886.99)">ProcrastinApp</text><text class="cls-30" transform="translate(9.91 877.59)">ProcrastinApp</text></g></g></svg>