<svg xmlns="http://www.w3.org/2000/svg" xmlns:xlink="http://www.w3.org/1999/xlink" viewBox="0 0 194.23 273.68"><defs><style>.cls-1{mask:url(#mask);filter:url(#luminosity-noclip-2);}.cls-2,.cls-63{mix-blend-mode:multiply;}.cls-2,.cls-65{fill:url(#radial-gradient);}.cls-3{fill:url(#linear-gradient);}.cls-4{fill:url(#linear-gradient-2);}.cls-5{fill:none;}.cls-6{isolation:isolate;}.cls-7{clip-path:url(#clip-path);}.cls-8{fill:url(#linear-gradient-4);}.cls-9{fill:url(#linear-gradient-5);}.cls-10{fill:url(#linear-gradient-6);}.cls-11{clip-path:url(#clip-path-2);}.cls-12{fill:url(#linear-gradient-9);}.cls-13{fill:url(#linear-gradient-10);}.cls-14{fill:url(#linear-gradient-11);}.cls-15{clip-path:url(#clip-path-3);}.cls-16{fill:#929494;}.cls-17{fill:#8e8f90;}.cls-18{fill:#8a8b8c;}.cls-19{fill:#868788;}.cls-20{fill:#828383;}.cls-21{fill:#7d7f7f;}.cls-22{fill:#797a7b;}.cls-23{fill:#757677;}.cls-24{fill:#717272;}.cls-25{fill:#6d6e6e;}.cls-26{fill:#969899;}.cls-27{fill:#9b9c9d;}.cls-28{fill:#9fa0a1;}.cls-29{fill:#a3a5a5;}.cls-30{fill:#a7a9aa;}.cls-31{fill:#abadae;}.cls-32{fill:#b0b1b2;}.cls-33{fill:#b4b5b6;}.cls-34{fill:#b8babb;}.cls-35{fill:#bcbebf;}.cls-36{fill:#c0c2c3;}.cls-37{fill:#c4c6c7;}.cls-38{fill:#c9cbcc;}.cls-39{fill:#cdcfd0;}.cls-40{fill:#d1d3d4;}.cls-41{fill:#d7d8d9;}.cls-42{fill:#d9dadb;}.cls-43{fill:#dbdcdd;}.cls-44{fill:#dcdede;}.cls-45{fill:#dddfe0;}.cls-46{fill:#dfe0e1;}.cls-47{fill:#e0e1e2;}.cls-48{fill:#e1e2e3;}.cls-49{fill:#e2e3e3;}.cls-50{fill:#e2e4e4;}.cls-51{fill:#e3e5e5;}.cls-52{fill:#e4e5e6;}.cls-53{fill:#e5e6e7;}.cls-54{fill:#e6e7e7;}.cls-55{fill:#e6e7e8;}.cls-56{fill:#e7e8e9;}.cls-57{clip-path:url(#clip-path-4);}.cls-58{clip-path:url(#clip-path-5);}.cls-59{clip-path:url(#clip-path-6);}.cls-60{fill:#f3d02f;}.cls-61{fill:#22368f;}.cls-62{fill:#bc0030;}.cls-63{fill:url(#radial-gradient-2);}.cls-64{mask:url(#mask-2);}.cls-65{mix-blend-mode:screen;}.cls-66{filter:url(#luminosity-noclip);}</style><filter id="luminosity-noclip" x="30.22" y="-8483.37" width="133.79" height="32766" filterUnits="userSpaceOnUse" color-interpolation-filters="sRGB"><feFlood flood-color="#fff" result="bg"/><feBlend in="SourceGraphic" in2="bg"/></filter><mask id="mask" x="30.22" y="-8483.37" width="133.79" height="32766" maskUnits="userSpaceOnUse"><g class="cls-66"/></mask><radialGradient id="radial-gradient" cx="113.65" cy="8.17" r="135.43" gradientUnits="userSpaceOnUse"><stop offset="0" stop-color="#fff"/><stop offset="0.16" stop-color="#c2c2c2"/><stop offset="0.32" stop-color="#878787"/><stop offset="0.49" stop-color="#575757"/><stop offset="0.64" stop-color="#313131"/><stop offset="0.78" stop-color="#161616"/><stop offset="0.9" stop-color="#060606"/><stop offset="1"/></radialGradient><linearGradient id="linear-gradient" x1="187.43" y1="125.55" x2="102.69" y2="253.98" gradientUnits="userSpaceOnUse"><stop offset="0.12" stop-color="#e9e9e9"/><stop offset="0.31" stop-color="#c9c9c9"/><stop offset="0.56" stop-color="#8e8e8e"/><stop offset="1" stop-color="#b5b5b5"/></linearGradient><linearGradient id="linear-gradient-2" x1="78.58" y1="214.24" x2="-19.86" y2="108.63" xlink:href="#linear-gradient"/><clipPath id="clip-path"><path class="cls-3" d="M194.23,90.39V121c0,40.45-68.15,107.15-97.11,152.67V243.06C126.08,197.53,194.23,130.84,194.23,90.39Z"/></clipPath><linearGradient id="linear-gradient-4" x1="184.3" y1="123.49" x2="99.56" y2="251.91" xlink:href="#linear-gradient"/><linearGradient id="linear-gradient-5" x1="186.62" y1="125.02" x2="101.87" y2="253.45" xlink:href="#linear-gradient"/><linearGradient id="linear-gradient-6" x1="188.69" y1="126.38" x2="103.94" y2="254.81" xlink:href="#linear-gradient"/><clipPath id="clip-path-2"><path class="cls-4" d="M97.12,243.06v30.62C68.17,228.16,0,161.46,0,121V90.39C0,130.84,68.17,197.53,97.12,243.06Z"/></clipPath><linearGradient id="linear-gradient-9" x1="164.29" y1="23.23" x2="65.56" y2="131.48" gradientUnits="userSpaceOnUse"><stop offset="0" stop-color="gray"/><stop offset="0.06" stop-color="#838383"/><stop offset="0.1" stop-color="#8d8d8d"/><stop offset="0.14" stop-color="#9d9d9d"/><stop offset="0.17" stop-color="#b4b4b4"/><stop offset="0.21" stop-color="#d2d2d2"/><stop offset="0.22" stop-color="#e2e2e2"/><stop offset="0.39" stop-color="#c2c2c2"/><stop offset="0.56" stop-color="#636363"/><stop offset="0.64" stop-color="#828282"/><stop offset="0.85" stop-color="#444"/><stop offset="1" stop-color="#adadad"/></linearGradient><linearGradient id="linear-gradient-10" x1="0" y1="121.53" x2="194.23" y2="121.53" xlink:href="#linear-gradient"/><linearGradient id="linear-gradient-11" x1="137.16" y1="4.91" x2="22.29" y2="239.24" xlink:href="#linear-gradient-9"/><clipPath id="clip-path-3"><path class="cls-5" d="M97.13,167.87a78.72,78.72,0,0,1-12.55-1A76.92,76.92,0,0,1,51.45,153a78.15,78.15,0,0,1-9-7.73,77.63,77.63,0,0,1-14-19.14A76,76,0,0,1,23.73,115a77.2,77.2,0,0,1-2.94-11.9,78.41,78.41,0,0,1,0-25.09,77.33,77.33,0,0,1,2.94-11.91,77.35,77.35,0,0,1,11-21.23,77.18,77.18,0,0,1,7.73-9c2.61-2.42,6.22-5.52,9-7.73a77.48,77.48,0,0,1,10.13-6.29c3.28-1.54,7.72-3.42,11.1-4.69a56.1,56.1,0,0,1,5.86-1.69,77.88,77.88,0,0,1,37.17,0,76.42,76.42,0,0,1,17,6.38,54.31,54.31,0,0,1,5.2,2.95,116.19,116.19,0,0,1,9.59,7A77.65,77.65,0,0,1,168.4,60.42,118.85,118.85,0,0,1,172.23,72c.51,1.77.86,4.22,1.23,6a77.36,77.36,0,0,1,1,12.54,116.84,116.84,0,0,1-1,12.55,87.2,87.2,0,0,1-2.93,11.9,83.13,83.13,0,0,1-4.69,11.1,90.42,90.42,0,0,1-6.29,10.13,81.83,81.83,0,0,1-7.73,9,86,86,0,0,1-9,7.73,86,86,0,0,1-10.14,6.29,115.3,115.3,0,0,1-11.1,4.69,76.9,76.9,0,0,1-11.9,2.93C105.92,167.32,100.9,167.79,97.13,167.87Z"/></clipPath><clipPath id="clip-path-4"><path class="cls-5" d="M174.47,90.53a77.36,77.36,0,0,0-1-12.54,115.59,115.59,0,0,0-2.93-11.91A70.24,70.24,0,0,0,165.84,55a85.73,85.73,0,0,0-6.29-10.14c-1.11-1.4-2.48-3.35-3.7-4.65a109,109,0,0,0-8.39-8.4c-2.72-2.3-6.63-5-9.59-7-1.49-1-3.64-2.07-5.2-2.95a82.78,82.78,0,0,0-11.1-4.69,70.11,70.11,0,0,0-11.9-2.93,116.66,116.66,0,0,0-12.54-1,77.34,77.34,0,0,1,0,154.68c3.77-.15,8.79-.55,12.54-1h0a76.9,76.9,0,0,0,11.9-2.93,115.3,115.3,0,0,0,11.1-4.69A86,86,0,0,0,142.81,153a86,86,0,0,0,9-7.73,81.83,81.83,0,0,0,7.73-9,90.42,90.42,0,0,0,6.29-10.13,83.13,83.13,0,0,0,4.69-11.1,87.2,87.2,0,0,0,2.93-11.9A99.37,99.37,0,0,0,174.47,90.53Z"/></clipPath><clipPath id="clip-path-5"><path class="cls-5" d="M97.13,167.87a78.72,78.72,0,0,1-12.55-1A76.92,76.92,0,0,1,51.45,153a78.15,78.15,0,0,1-9-7.73,77.63,77.63,0,0,1-14-19.14A76,76,0,0,1,23.73,115a77.2,77.2,0,0,1-2.94-11.9,78.41,78.41,0,0,1,0-25.09,77.33,77.33,0,0,1,2.94-11.91,77.35,77.35,0,0,1,11-21.23,77.18,77.18,0,0,1,7.73-9c2.61-2.42,6.22-5.52,9-7.73a77.48,77.48,0,0,1,10.13-6.29c3.28-1.54,7.72-3.42,11.1-4.69a56.1,56.1,0,0,1,5.86-1.69,117.52,117.52,0,0,1,12.25-2c1.89-.22,4.43-.18,6.34-.25a77.34,77.34,0,0,1,0,154.68Z"/></clipPath><clipPath id="clip-path-6"><path class="cls-5" d="M174.46,90.53A77.34,77.34,0,1,1,97.13,13.19a77.34,77.34,0,0,1,77.33,77.34"/></clipPath><radialGradient id="radial-gradient-2" cx="81.06" cy="58" r="110.95" gradientUnits="userSpaceOnUse"><stop offset="0.19" stop-color="#fff"/><stop offset="0.41" stop-color="#dbdada"/><stop offset="0.59" stop-color="#b2b0b1"/><stop offset="0.86" stop-color="#555253"/><stop offset="0.91" stop-color="#3d3b3c"/><stop offset="1"/></radialGradient><filter id="luminosity-noclip-2" x="30.22" y="13.19" width="133.79" height="133.79" filterUnits="userSpaceOnUse" color-interpolation-filters="sRGB"><feFlood flood-color="#fff" result="bg"/><feBlend in="SourceGraphic" in2="bg"/></filter><mask id="mask-2" x="30.22" y="13.19" width="133.79" height="133.79" maskUnits="userSpaceOnUse"><g class="cls-1"><path class="cls-2" d="M112.74,15.05a66.89,66.89,0,1,0,49.41,80.66A66.88,66.88,0,0,0,112.74,15.05Z"/></g></mask></defs><g class="cls-6"><g id="Capa_2" data-name="Capa 2"><g id="_5" data-name="5"><g class="cls-6"><path class="cls-3" d="M194.23,90.39V121c0,40.45-68.15,107.15-97.11,152.67V243.06C126.08,197.53,194.23,130.84,194.23,90.39Z"/><g class="cls-7"><g class="cls-6"><path class="cls-8" d="M194.23,90.39V121a42.22,42.22,0,0,1-.49,6.24V96.62a42.2,42.2,0,0,0,.49-6.23"/><path class="cls-9" d="M193.74,96.62v30.63a56.28,56.28,0,0,1-1.52,6.88V103.5a55.87,55.87,0,0,0,1.52-6.88"/><path class="cls-10" d="M192.22,103.5v30.63c-11.46,40.69-69.1,98.66-95.1,139.55V243.06c26-40.9,83.64-98.87,95.1-139.56"/></g></g></g><g class="cls-6"><path class="cls-4" d="M97.12,243.06v30.62C68.17,228.16,0,161.46,0,121V90.39C0,130.84,68.17,197.53,97.12,243.06Z"/><g class="cls-11"><g class="cls-6"><path class="cls-4" d="M97.12,243.06v30.62C68.17,228.16,0,161.46,0,121V90.39c0,40.45,68.17,107.14,97.12,152.67"/></g></g></g><path class="cls-12" d="M97.12,0c53.63,0,97.11,40.45,97.11,90.39,0,40.45-68.15,107.14-97.11,152.67C68.17,197.53,0,130.84,0,90.39,0,40.45,43.49,0,97.12,0Z"/><path class="cls-13" d="M97.12,0c53.63,0,97.11,40.45,97.11,90.39,0,40.45-68.15,107.14-97.11,152.67C68.17,197.53,0,130.84,0,90.39,0,40.45,43.49,0,97.12,0Z"/><path class="cls-14" d="M97.12,239.45c-9.24-14.08-21.76-29.85-35-46.48C33.94,157.43,2,117.16,2,90.39,2,41.63,44.64,2,97.12,2s95.15,39.67,95.15,88.43c0,26.77-32,67.06-60.21,102.6C118.86,209.62,106.34,225.38,97.12,239.45Z"/><g class="cls-6"><g class="cls-6"><g class="cls-15"><g class="cls-6"><path class="cls-16" d="M97.13,167.87c3.77-.15,8.79-.55,12.54-1a76.9,76.9,0,0,0,11.9-2.93c6.88-2.6,12.82-4.83,21.24-11a77.52,77.52,0,0,0,27.72-38c3.37-10.32,3.63-16.55,3.94-24.45a77.36,77.36,0,0,0-1-12.54c-1.68-8.22-4-19.46-13.91-33.14A77.24,77.24,0,0,0,97.13,13.19c-17.17,0-28.23,5.19-35.55,8.63a77.48,77.48,0,0,0-10.13,6.29c-2.79,2.21-6.4,5.31-9,7.73a77.18,77.18,0,0,0-7.73,9,77.35,77.35,0,0,0-11,21.23A77.33,77.33,0,0,0,20.79,78a78.41,78.41,0,0,0,0,25.09A77.2,77.2,0,0,0,23.73,115a77,77,0,0,0,11,21.23,77.18,77.18,0,0,0,7.73,9,77.63,77.63,0,0,0,19.14,14,76.82,76.82,0,0,0,23,7.62,78.72,78.72,0,0,0,12.55,1"/><path class="cls-16" d="M84.58,14.2c-3.6.74-8.37,1.91-11.9,2.93L67,19.27l-5.44,2.55a77.48,77.48,0,0,0-10.13,6.29L46.79,31.8l-4.35,4a77.18,77.18,0,0,0-7.73,9,77.35,77.35,0,0,0-11,21.23A77.33,77.33,0,0,0,20.79,78a78.41,78.41,0,0,0,0,25.09A77.2,77.2,0,0,0,23.73,115a77,77,0,0,0,11,21.23,77.18,77.18,0,0,0,7.73,9,77.63,77.63,0,0,0,19.14,14,76.82,76.82,0,0,0,23,7.62,78.72,78.72,0,0,0,12.55,1l6.34-.26,6.2-.75a76.9,76.9,0,0,0,11.9-2.93l1.14-.39-3.88,1.24C68.59,177.87,41.45,140.45,61,105.23,85.7,60.58,155.54,55.83,167.72,98c3.13,10.84,1.66,34.42-23.71,54.07l4.58-3.78,3.23-3.05,4-4.35,3.7-4.66,3.33-4.94,3-5.19,2.56-5.44,2.13-5.66,1.7-5.86,1.23-6,.76-6.2.25-6.35a77.36,77.36,0,0,0-1-12.54l-1.23-6-1.7-5.87-2.13-5.66L165.84,55l-3-5.2-3.33-4.94-3.7-4.65-4-4.36-4.36-4-4.65-3.69-4.94-3.34-5.2-2.95-5.44-2.55-5.66-2.14-5.86-1.69-6-1.24-6.2-.76-6.34-.25-6.34.25-6.21.76"/><path class="cls-17" d="M84.58,14.2c-3.6.74-8.37,1.91-11.9,2.93L67,19.27l-5.44,2.55a77.48,77.48,0,0,0-10.13,6.29L46.79,31.8l-4.35,4a77.18,77.18,0,0,0-7.73,9,77.35,77.35,0,0,0-11,21.23A77.33,77.33,0,0,0,20.79,78a78.41,78.41,0,0,0,0,25.09A77.2,77.2,0,0,0,23.73,115a77,77,0,0,0,11,21.23,77.18,77.18,0,0,0,7.73,9,77.63,77.63,0,0,0,19.14,14,76.82,76.82,0,0,0,23,7.62,78.72,78.72,0,0,0,12.55,1l6.34-.26,3.88-.41-2.13.25c-49.41,4.67-70.76-39.18-37.45-76.92,31.44-35.62,97.8-34.25,102.17,12.3.44,4.68.68,21.32-14.81,38.87l3.76-4.61.66-.88,3.33-4.94,3-5.19,2.56-5.44,2.13-5.66,1.7-5.86,1.23-6,.76-6.2.25-6.35a77.36,77.36,0,0,0-1-12.54l-1.23-6-1.7-5.87-2.13-5.66L165.84,55l-3-5.2-3.33-4.94-3.7-4.65-4-4.36-4.36-4-4.65-3.69-4.94-3.34-5.2-2.95-5.44-2.55-5.66-2.14-5.86-1.69-6-1.24-6.2-.76-6.34-.25-6.34.25-6.21.76"/><path class="cls-18" d="M84.58,14.2c-3.6.74-8.37,1.91-11.9,2.93L67,19.27l-5.44,2.55a77.48,77.48,0,0,0-10.13,6.29L46.79,31.8l-4.35,4a77.18,77.18,0,0,0-7.73,9,77.35,77.35,0,0,0-11,21.23A77.33,77.33,0,0,0,20.79,78a78.41,78.41,0,0,0,0,25.09A77.2,77.2,0,0,0,23.73,115a77,77,0,0,0,11,21.23,77.18,77.18,0,0,0,7.73,9,77.63,77.63,0,0,0,19.14,14,76.82,76.82,0,0,0,23,7.62,78.72,78.72,0,0,0,12.55,1l-4-.12c-55.17-4.62-53.34-59-21-85.63,43.39-35.68,104.19-18.35,98.57,28.1-.61,5-2.73,13.23-9.38,23.5l3.14-5.07,1.4-2.57,2.56-5.44,2.13-5.66,1.7-5.86,1.23-6,.76-6.2.25-6.35a77.36,77.36,0,0,0-1-12.54l-1.23-6-1.7-5.87-2.13-5.66L165.84,55l-3-5.2-3.33-4.94-3.7-4.65-4-4.36-4.36-4-4.65-3.69-4.94-3.34-5.2-2.95-5.44-2.55-5.66-2.14-5.86-1.69-6-1.24-6.2-.76-6.34-.25-6.34.25-6.21.76"/><path class="cls-19" d="M84.58,14.2c-3.6.74-8.37,1.91-11.9,2.93L67,19.27l-5.44,2.55a77.48,77.48,0,0,0-10.13,6.29L46.79,31.8l-4.35,4a77.18,77.18,0,0,0-7.73,9,77.35,77.35,0,0,0-11,21.23A77.33,77.33,0,0,0,20.79,78a78.41,78.41,0,0,0,0,25.09A77.2,77.2,0,0,0,23.73,115a77,77,0,0,0,11,21.23,77.18,77.18,0,0,0,7.73,9,77.63,77.63,0,0,0,19.14,14,76.82,76.82,0,0,0,23,7.62c1.3.21,2.6.39,3.92.54l-.28,0c-47.91-6.31-56.84-56.51-15.92-89.52C115.15,43.26,175.68,59.9,172,105.23a55,55,0,0,1-6.26,21.14l2.71-5.73,2.13-5.66,1.7-5.86,1.23-6,.76-6.2.25-6.35a77.36,77.36,0,0,0-1-12.54l-1.23-6-1.7-5.87-2.13-5.66L165.84,55l-3-5.2-3.33-4.94-3.7-4.65-4-4.36-4.36-4-4.65-3.69-4.94-3.34-5.2-2.95-5.44-2.55-5.66-2.14-5.86-1.69-6-1.24-6.2-.76-6.34-.25-6.34.25-6.21.76"/><path class="cls-20" d="M84.58,14.2c-3.6.74-8.37,1.91-11.9,2.93L67,19.27l-5.44,2.55a77.48,77.48,0,0,0-10.13,6.29L46.79,31.8l-4.35,4a77.18,77.18,0,0,0-7.73,9,77.35,77.35,0,0,0-11,21.23A77.33,77.33,0,0,0,20.79,78a78.41,78.41,0,0,0,0,25.09A77.2,77.2,0,0,0,23.73,115a77,77,0,0,0,11,21.23,77.18,77.18,0,0,0,7.73,9,77.63,77.63,0,0,0,19.14,14,77.1,77.1,0,0,0,11.1,4.69,78.76,78.76,0,0,0,7.8,2.15L80,166C27.16,152.62,36.5,91.26,82.92,66.81c52.21-27.49,103.31,2.22,86.8,50.46-.21.6-.52,1.4-.76,2,1.1-3,2.38-7.07,3.27-10.14l1.23-6,.76-6.2.25-6.35a77.36,77.36,0,0,0-1-12.54l-1.23-6-1.7-5.87-2.13-5.66L165.84,55l-3-5.2-3.33-4.94-3.7-4.65-4-4.36-4.36-4-4.65-3.69-4.94-3.34-5.2-2.95-5.44-2.55-5.66-2.14-5.86-1.69-6-1.24-6.2-.76-6.34-.25-6.34.25-6.21.76"/><path class="cls-21" d="M84.58,14.2c-3.6.74-8.37,1.91-11.9,2.93L67,19.27l-5.44,2.55a77.48,77.48,0,0,0-10.13,6.29L46.79,31.8l-4.35,4a77.18,77.18,0,0,0-7.73,9,77.35,77.35,0,0,0-11,21.23A77.33,77.33,0,0,0,20.79,78a78.41,78.41,0,0,0,0,25.09A77.2,77.2,0,0,0,23.73,115a77,77,0,0,0,11,21.23,77.18,77.18,0,0,0,7.73,9,77.63,77.63,0,0,0,19.14,14,77.1,77.1,0,0,0,11.1,4.69l-.16-.06c-46-17.06-39.88-74.69,10.68-101.08,45.74-23.87,102-1.15,88.21,49.35l1.48-6,.57-3.11.76-6.2.25-6.35a77.36,77.36,0,0,0-1-12.54l-1.23-6-1.7-5.87-2.13-5.66L165.84,55l-3-5.2-3.33-4.94-3.7-4.65-4-4.36-4.36-4-4.65-3.69-4.94-3.34-5.2-2.95-5.44-2.55-5.66-2.14-5.86-1.69-6-1.24-6.2-.76-6.34-.25-6.34.25-6.21.76"/><path class="cls-22" d="M84.58,14.2c-3.6.74-8.37,1.91-11.9,2.93L67,19.27l-5.44,2.55a77.48,77.48,0,0,0-10.13,6.29L46.79,31.8l-4.35,4a77.18,77.18,0,0,0-7.73,9,77.35,77.35,0,0,0-11,21.23A77.33,77.33,0,0,0,20.79,78a78.41,78.41,0,0,0,0,25.09A77.2,77.2,0,0,0,23.73,115a77,77,0,0,0,11,21.23,77.18,77.18,0,0,0,7.73,9,77.63,77.63,0,0,0,19.14,14c1.43.74,2.87,1.43,4.34,2.08l-.68-.31c-49.75-24.69-25-88.28,28.19-106.6,42.26-14.56,87.35,5.84,79.73,50.39.41-2.36.77-5.54,1.06-7.92l.25-6.35a77.36,77.36,0,0,0-1-12.54l-1.23-6-1.7-5.87-2.13-5.66L165.84,55l-3-5.2-3.33-4.94-3.7-4.65-4-4.36-4.36-4-4.65-3.69-4.94-3.34-5.2-2.95-5.44-2.55-5.66-2.14-5.86-1.69-6-1.24-6.2-.76-6.34-.25-6.34.25-6.21.76"/><path class="cls-23" d="M84.58,14.2c-3.6.74-8.37,1.91-11.9,2.93L67,19.27l-5.44,2.55a77.48,77.48,0,0,0-10.13,6.29L46.79,31.8l-4.35,4a77.18,77.18,0,0,0-7.73,9,77.35,77.35,0,0,0-11,21.23A77.33,77.33,0,0,0,20.79,78a78.41,78.41,0,0,0,0,25.09A77.2,77.2,0,0,0,23.73,115a77,77,0,0,0,11,21.23,77.18,77.18,0,0,0,7.73,9,77.56,77.56,0,0,0,16.25,12.44l-.75-.44C12.9,129.08,40.6,61.5,102.85,47.66c36-8,74.15,10.26,71.36,49.25l.26-6.34v0a77.36,77.36,0,0,0-1-12.54l-1.23-6-1.7-5.87-2.13-5.66L165.84,55l-3-5.2-3.33-4.94-3.7-4.65-4-4.36-4.36-4-4.65-3.69-4.94-3.34-5.2-2.95-5.44-2.55-5.66-2.14-5.86-1.69-6-1.24-6.2-.76-6.34-.25-6.34.25-6.21.76"/><path class="cls-24" d="M84.58,14.2c-3.6.74-8.37,1.91-11.9,2.93L67,19.27l-5.44,2.55a77.48,77.48,0,0,0-10.13,6.29L46.79,31.8l-4.35,4a77.18,77.18,0,0,0-7.73,9,77.35,77.35,0,0,0-11,21.23A77.33,77.33,0,0,0,20.79,78a78.41,78.41,0,0,0,0,25.09A77.2,77.2,0,0,0,23.73,115a77,77,0,0,0,11,21.23,77.18,77.18,0,0,0,7.73,9,78,78,0,0,0,8.71,7.51l-.76-.58C5.51,114.53,51,48.62,110.79,42c20.59-2.3,60.39,4.35,63.64,46a77.3,77.3,0,0,0-1-9.93l-1.23-6-1.7-5.87-2.13-5.66L165.84,55l-3-5.2-3.33-4.94-3.7-4.65-4-4.36-4.36-4-4.65-3.69-4.94-3.34-5.2-2.95-5.44-2.55-5.66-2.14-5.86-1.69-6-1.24-6.2-.76-6.34-.25-6.34.25-6.21.76"/><path class="cls-25" d="M84.58,14.2c-3.6.74-8.37,1.91-11.9,2.93L67,19.27l-5.44,2.55a77.48,77.48,0,0,0-10.13,6.29L46.79,31.8l-4.35,4a77.18,77.18,0,0,0-7.73,9,77.35,77.35,0,0,0-11,21.23A77.33,77.33,0,0,0,20.79,78a78.41,78.41,0,0,0,0,25.09A77.2,77.2,0,0,0,23.73,115a77,77,0,0,0,11,21.23,78.73,78.73,0,0,0,7.71,9l-.76-.79C-.07,98.61,62.63,30.81,123.79,36.61c26.71,2.53,45.2,17.58,49.48,40.25l-1.32-6-1.42-4.77-2.13-5.66L165.84,55l-3-5.2-3.33-4.94-3.7-4.65-4-4.36-4.36-4-4.65-3.69-4.94-3.34-5.2-2.95-5.44-2.55-5.66-2.14-5.86-1.69-6-1.24-6.2-.76-6.34-.25-6.34.25-6.21.76"/><path class="cls-26" d="M73.13,159.56c40.58,26.45,101.12-17,94.2-55.52C159.58,60.91,95.24,63.12,68.81,98c-19.37,25.54-12.23,50.79,4.32,61.58"/><path class="cls-27" d="M71.08,156.1c34.66,30.55,97.69-7.74,95.23-46.86C163.74,68.35,102.18,61,72.22,98c-15.92,19.66-16.41,44.65-1.14,58.12"/><path class="cls-28" d="M73.59,156.1c29.63,26.73,92.79-3.6,91.33-43.85-1.41-38.93-62-48.53-90-14.27-13.72,16.76-18,43.08-1.28,58.12"/><path class="cls-29" d="M72.46,152.11c26.51,32.07,86.68,3.61,90.6-33.11,4.11-38.4-47.24-51.54-77.41-28.47C65.1,106.25,58.81,135.6,72.46,152.11"/><path class="cls-30" d="M75.21,152.11c23.12,28,83.62,4.78,86.3-33.11,2.41-34-45.35-53.65-79.26-22.9-14.1,12.78-20.25,40-7,56"/><path class="cls-31" d="M75,147.63c19.06,32.44,76.3,11.56,83.83-22.18C166.06,93.1,126,71.49,93,89.87,69.08,103.13,66.38,132.94,75,147.63"/><path class="cls-32" d="M78,147.63c19.14,31.3,72.35,10.72,79.19-22.18C163.1,96.91,125.08,71.56,93,91.66c-26.62,16.66-21.43,45.41-15,56"/><path class="cls-33" d="M78.48,142.7c14.19,33.88,65.5,15.9,75.11-11.13,10.53-29.61-24.4-55.69-55-41-25.8,12.37-27,35.83-20.14,52.17"/><path class="cls-34" d="M79.09,137.33c13,36.74,57.14,23,69.81,0,16.16-29.3-16.4-57.2-44.9-47.75-15,5-34.1,21.83-24.91,47.75"/><path class="cls-35" d="M79.5,131.57c10.54,39.28,54.78,28.5,67.24,5.76C161.38,110.6,134.22,81.15,104,91c-12.58,4.1-30.36,18.74-24.5,40.57"/><path class="cls-36" d="M81.51,131.57c11.35,34.28,49.82,29.06,62.72,5.76,14.28-25.8-11.67-54.93-40.23-45.17-13.26,4.53-29,19.75-22.49,39.41"/><path class="cls-37" d="M83.54,131.57c10.6,28.61,47.63,29.16,60,.9,9.38-21.4-12.7-48.4-39.58-39.15-12.75,4.39-27.53,19.16-20.45,38.25"/><path class="cls-38" d="M83.92,126.56c8.13,28.37,40.57,31.1,54.14,10.77,16-23.94-6.62-52.38-34.07-42.85C89.31,99.57,80.31,114,83.92,126.56"/><path class="cls-39" d="M87,131.57c9.21,18,42.41,26.12,52.92-5.18,0-.15,4.06-15.94-6-24.56C129.44,98,120.08,90,104,95.63S80,117.78,87,131.57"/><path class="cls-40" d="M86.23,125.45c5,20.69,36.71,28,49.07,6.12,12.1-21.45-7.51-43.24-31.32-34.8-9.46,3.36-21.22,14.47-17.75,28.68"/><path class="cls-41" d="M87.53,125.45c5.55,19.46,33.13,23.18,45.4,6.12,11.78-16.37-1-35.6-18.28-35.79A28.74,28.74,0,0,0,104,97.92l-10.83,7.31c-5.75,6.29-7.64,13.1-5.61,20.22"/><path class="cls-42" d="M88.84,125.45c3.57,11,15.83,15.5,21.6,15.5,13.71,0,21.61-10.14,23.87-15.5,5.06-12-2.42-20.15-2.5-20.22-7-6.09-7-6.09-17.18-8.38-3.18-.72-7.66.86-10.67,2.11a36.07,36.07,0,0,0-9.32,6.27,61.3,61.3,0,0,0-5.1,7s-2.84,6.63-.7,13.2"/><path class="cls-43" d="M90.15,125.45c3.34,9.21,15,13.84,20.61,13.84,8.06,0,18.22-6.47,21.75-13.84,5.36-11.23-2.15-20.15-2.23-20.22-6.08-5.42-6.08-5.42-15.67-7.32L104,100a29,29,0,0,0-13.2,12.25c0,.06-3,6.49-.6,13.2"/><path class="cls-44" d="M91.47,125.45c5.46,14.68,30.6,17.17,39.19,0,6-11.91-1.86-20.14-1.94-20.22-3.41-3.12-5.29-4.83-14.13-6.33-3.22-.54-7.64.88-10.66,2.13-.18.08-18.3,8.72-12.46,24.42"/><path class="cls-45" d="M92.8,125.45s1.88,4.73,10,9.47c2.24,1.31,5.94,1.38,8.54,1.38a18.85,18.85,0,0,0,8.74-2.23c2.38-1.44,6.73-4.49,9.12-8.62,2.55-4.41,2.66-6.57,2-13.2-.24-2.42-2.23-5.37-4-7-4.54-4.21-12.25-5.3-12.58-5.35-3.23-.44-7.63.93-10.64,2.18-5.4,2.25-10.69,10.11-10.73,10.19a15.84,15.84,0,0,0-.39,13.2"/><path class="cls-46" d="M93.32,122.17c.24,1,.3,2.44.89,3.28a27.77,27.77,0,0,0,5.73,6.12c3.68,2.62,3.9,2.77,11.55,3.5,2.8.27,6.54-1.33,9-2.76,1.91-1.14,7.22-6.82,7.25-6.86,3-4.59,2.91-6.82,2.23-13.2-.26-2.47-2.57-5.32-4.38-7-2.38-2.23-10.94-4.36-11-4.37-3.24-.32-7.62,1-10.62,2.23-3.93,1.64-9.43,9.09-9.46,9.16a13.74,13.74,0,0,0-1.13,9.92"/><path class="cls-47" d="M95.69,125.45s6,6.17,7.22,6.8a15.31,15.31,0,0,0,8.77,1.58C125.4,131.17,128.36,122.57,129,119c1.3-7.31-4-13.11-5.29-13.77-2.62-1.34-6.26-3.39-9.2-3.39-3.25,0-7.47,1.4-10.61,2.27a5.32,5.32,0,0,0-1.68,1.12c-12.33,10.52-8,17.82-6.52,20.22"/><path class="cls-48" d="M97.18,125.45a16.37,16.37,0,0,0,5.81,5.47l8.88,1.65c12.49-2.64,15.29-10.37,15.91-13.57,1.15-5.94-1.1-10.58-6.68-13.77-1.84-1-4.51-2.42-6.63-2.42-.08,0-10.41,2.13-10.76,2.42-3.78,3.17-12.63,10.6-6.53,20.22"/><path class="cls-49" d="M98.67,125.45a11.91,11.91,0,0,0,4.39,4.16c2.51,1.1,6.32,2.32,9,1.7,3-.71,7.12-2.23,9.5-4.26,3.21-2.72,5-8,5-8,1.75-8.32-3.94-11.47-8.1-13.77-1.12-.62-2.74-1.56-4-1.46a68.72,68.72,0,0,0-10.58,2.67c-3.93,2.4-10.7,10.53-5.18,19"/><path class="cls-50" d="M100.16,125.45a7.72,7.72,0,0,0,3,2.83c2.6,1,6.4,2.52,9.1,1.83a26.15,26.15,0,0,0,9.4-4.66c.59-.51,3.68-6.41,3.69-6.45,0-.2,1-4.75-1.43-8.3-1.67-2.41-5.51-4.11-8.11-5.47-2.81-1.47-11.87,2.5-11.94,2.55-4.25,2.59-9,9.67-3.67,17.67"/><path class="cls-51" d="M101.64,125.45a3.89,3.89,0,0,0,1.55,1.49c2.68.86,6.48,2.74,9.19,2a21,21,0,0,0,7-3.45c1.83-1.55,4.19-4.11,4.71-6.45.07-.3-.36-6.6-.46-6.75-1.78-2.82-5.86-5.79-9.15-6.3s-7.62,1.78-10.64,3.17a8.86,8.86,0,0,0-3,3.13c-2.65,4-2.35,8.47.88,13.2"/><path class="cls-52" d="M103.12,125.45c.27.38,9.35,2.24,9.42,2.22a14.67,14.67,0,0,0,4.48-2.22c2-1.68,5-4,5.72-6.45a9.49,9.49,0,0,0-1.1-6.75c-1.45-2.25-4.72-4.64-7.36-5-3.26-.48-7.46,2-10.51,3.22a4.55,4.55,0,0,0-1.76,1.8,12.77,12.77,0,0,0-1.88,6.75c.18,2.12,1.76,4.7,3,6.45"/><path class="cls-53" d="M103.35,123.26c2.12,2.06,6.46,3.87,9.34,3.17a5.18,5.18,0,0,0,2-1c2-1.81,5.43-3.88,6.2-6.45a9.41,9.41,0,0,0-1.21-6.75,9.06,9.06,0,0,0-5.45-3.69c-.07,0-10.13,2.58-10.95,3.69,0,.06-4,7.06.09,11"/><path class="cls-54" d="M103.45,120.79c2.2,2.17,6.36,4.74,9.4,4.21,2.54-.44,5.37-3.55,6.13-6,.61-2-.35-4.93-1.32-6.75a5.44,5.44,0,0,0-3.53-2.37,10.27,10.27,0,0,0-7.7,2.37c-5.72,5.84-3.66,7.87-3,8.54"/><path class="cls-55" d="M113.08,122.93c1.66-.27,3.5-2.33,4-3.93.6-2-.69-4.82-1.43-6.75a2.23,2.23,0,0,0-1.58-1.06,5,5,0,0,0-3.41,1.06c-2,1.72-6.33,4.14-5.78,6.75s5.51,4.37,8.21,3.93"/><path class="cls-56" d="M113.29,120.82a2.87,2.87,0,0,0,1.84-1.82c.47-1.61-.86-3.82-1.22-5.46-1.31,1.64-4.82,3.41-4.36,5.46.27,1.21,2.51,2,3.74,1.82"/></g></g></g><g class="cls-6"><g class="cls-57"><g class="cls-6"><path class="cls-18" d="M174.47,90.53c-.31,7.9-.57,14.13-3.94,24.45a77.52,77.52,0,0,1-27.72,38c-8.42,6.15-14.36,8.38-21.24,11a76.9,76.9,0,0,1-11.9,2.93c-3.75.46-8.77.86-12.54,1a77.34,77.34,0,0,0,0-154.68c5.79.23,15.48.62,24.44,3.94A77.76,77.76,0,0,1,147.46,31.8c10.2,8.67,15.12,17.4,18.38,23.19,4.58,8.14,6.49,17.44,7.62,23a77.36,77.36,0,0,1,1,12.54"/><path class="cls-18" d="M174.47,90.53c-.07,3.78-.55,8.8-1,12.55l-1.23,6-1.7,5.86-2.13,5.66-2.56,5.44-3,5.19-3.33,4.94-3.7,4.66-4,4.35-4.36,4L142.81,153l-4.94,3.33-5.2,3-5.44,2.55-5.66,2.14a76.9,76.9,0,0,1-11.9,2.93h0c-3.75.46-8.77.86-12.54,1a77.34,77.34,0,0,0,0-154.68l6.34.25,6.2.76,6,1.24,5.86,1.69,5.66,2.14,5.44,2.55,5.2,2.95,4.94,3.34,4.65,3.69,4.36,4,4,4.36,3.7,4.65,3.33,4.94,3,5.2,2.56,5.43,2.13,5.66,1.7,5.86,1.23,6a77.36,77.36,0,0,1,1,12.54"/><path class="cls-19" d="M174.47,90.53c-.07,3.78-.55,8.8-1,12.55l-1.23,6-1.7,5.86-2.13,5.66-2.56,5.44-3,5.19-3.33,4.94-3.7,4.66-4,4.35-4.36,4L142.81,153l-4.94,3.33-5.2,3-5.44,2.55-5.66,2.14a76.9,76.9,0,0,1-11.9,2.93h0c-3.75.46-8.77.86-12.54,1a77.35,77.35,0,0,0,9.13-154.15h0l-.31,0c3,.4,6.85,1.15,9.76,1.75l5.86,1.69,5.66,2.14,5.44,2.55,5.2,2.95,4.94,3.34,4.65,3.69,4.36,4,4,4.36,3.7,4.65,3.33,4.94,3,5.2,2.56,5.43,2.13,5.66,1.7,5.86,1.23,6a77.36,77.36,0,0,1,1,12.54"/><path class="cls-20" d="M174.47,90.53c-.07,3.78-.55,8.8-1,12.55l-1.23,6-1.7,5.86-2.13,5.66-2.56,5.44-3,5.19-3.33,4.94-3.7,4.66-4,4.35-4.36,4L142.81,153l-4.94,3.33-5.2,3-5.44,2.55-5.66,2.14a76.9,76.9,0,0,1-11.9,2.93h0c-3.75.46-8.77.86-12.54,1a77.35,77.35,0,0,0,17-152.8l5.48,1.45,1.92.61,5.66,2.14,5.44,2.55,5.2,2.95,4.94,3.34,4.65,3.69,4.36,4,4,4.36,3.7,4.65,3.33,4.94,3,5.2,2.56,5.43,2.13,5.66,1.7,5.86,1.23,6a77.36,77.36,0,0,1,1,12.54"/><path class="cls-21" d="M174.47,90.53c-.07,3.78-.55,8.8-1,12.55l-1.23,6-1.7,5.86-2.13,5.66-2.56,5.44-3,5.19-3.33,4.94-3.7,4.66-4,4.35-4.36,4L142.81,153l-4.94,3.33-5.2,3-5.44,2.55-5.66,2.14a76.9,76.9,0,0,1-11.9,2.93h0c-3.75.46-8.77.86-12.54,1A77.36,77.36,0,0,0,121.58,17.13l5.65,2.14,5.44,2.55,5.2,2.95,4.94,3.34,4.65,3.69,4.36,4,4,4.36,3.7,4.65,3.33,4.94,3,5.2,2.56,5.43,2.13,5.66,1.7,5.86,1.23,6a77.36,77.36,0,0,1,1,12.54"/><path class="cls-22" d="M174.47,90.53c-.07,3.78-.55,8.8-1,12.55l-1.23,6-1.7,5.86-2.13,5.66-2.56,5.44-3,5.19-3.33,4.94-3.7,4.66-4,4.35-4.36,4L142.81,153l-4.94,3.33-5.2,3-5.44,2.55-5.66,2.14a76.9,76.9,0,0,1-11.9,2.93h0c-3.75.46-8.77.86-12.54,1A77.35,77.35,0,0,0,128.75,19.93c2.79,1.35,6.43,3.31,9.12,4.84l4.94,3.34,4.65,3.69,4.36,4,4,4.36,3.7,4.65,3.33,4.94,3,5.2,2.56,5.43,2.13,5.66,1.7,5.86,1.23,6a77.36,77.36,0,0,1,1,12.54"/><path class="cls-23" d="M174.47,90.53c-.07,3.78-.55,8.8-1,12.55l-1.23,6-1.7,5.86-2.13,5.66-2.56,5.44-3,5.19-3.33,4.94-3.7,4.66-4,4.35-4.36,4L142.81,153l-4.94,3.33-5.2,3-5.44,2.55-5.66,2.14a76.9,76.9,0,0,1-11.9,2.93h0c-3.75.46-8.77.86-12.54,1A77.35,77.35,0,0,0,135.94,23.62l-.7-.4,5.08,3.14,2.49,1.75,4.65,3.69,4.36,4,4,4.36,3.7,4.65,3.33,4.94,3,5.2,2.56,5.43,2.13,5.66,1.7,5.86,1.23,6a77.36,77.36,0,0,1,1,12.54"/><path class="cls-24" d="M174.47,90.53c-.07,3.78-.55,8.8-1,12.55l-1.23,6-1.7,5.86-2.13,5.66-2.56,5.44-3,5.19-3.33,4.94-3.7,4.66-4,4.35-4.36,4L142.81,153l-4.94,3.33-5.2,3-5.44,2.55-5.66,2.14a76.9,76.9,0,0,1-11.9,2.93h0c-3.75.46-8.77.86-12.54,1A77.34,77.34,0,0,0,143.36,28.53l-.7-.53,4.8,3.8,4.36,4,4,4.36,3.7,4.65,3.33,4.94,3,5.2,2.56,5.43,2.13,5.66,1.7,5.86,1.23,6a77.36,77.36,0,0,1,1,12.54"/><path class="cls-25" d="M174.47,90.53c-.07,3.78-.55,8.8-1,12.55l-1.23,6-1.7,5.86-2.13,5.66-2.56,5.44-3,5.19-3.33,4.94-3.7,4.66-4,4.35-4.36,4L142.81,153l-4.94,3.33-5.2,3-5.44,2.55-5.66,2.14a76.9,76.9,0,0,1-11.9,2.93h0c-3.75.46-8.77.86-12.54,1a77.34,77.34,0,0,0,54.66-132l-.67-.67c1.48,1.46,3.32,3.52,4.73,5.05l3.7,4.65,3.33,4.94,3,5.2,2.56,5.43,2.13,5.66,1.7,5.86,1.23,6a77.36,77.36,0,0,1,1,12.54"/></g></g></g><g class="cls-6"><g class="cls-58"><g class="cls-6"><path class="cls-18" d="M97.13,167.87a78.72,78.72,0,0,1-12.55-1A76.92,76.92,0,0,1,51.45,153a78.15,78.15,0,0,1-9-7.73,77.63,77.63,0,0,1-14-19.14A76,76,0,0,1,23.73,115a77.2,77.2,0,0,1-2.94-11.9,78.41,78.41,0,0,1,0-25.09,77.33,77.33,0,0,1,2.94-11.91,77.35,77.35,0,0,1,11-21.23,77.18,77.18,0,0,1,7.73-9c2.61-2.42,6.22-5.52,9-7.73a77.48,77.48,0,0,1,10.13-6.29c6.23-2.93,10-4.69,17-6.38,7.39-1.8,10.9-1.94,18.59-2.25a77.34,77.34,0,0,1,0,154.68"/><path class="cls-18" d="M174.46,90.53a77.34,77.34,0,0,1-77.33,77.34,78.72,78.72,0,0,1-12.55-1A76.92,76.92,0,0,1,51.45,153a78.15,78.15,0,0,1-9-7.73,77.63,77.63,0,0,1-14-19.14A76,76,0,0,1,23.73,115a77.2,77.2,0,0,1-2.94-11.9,78.41,78.41,0,0,1,0-25.09,77.33,77.33,0,0,1,2.94-11.91,77.44,77.44,0,0,1,9.08-18.52h0c-28.92,44.83,10.95,80.77,57.82,68,53.49-14.54,73.56-74,32.53-96.45-10.26-5.6-22.13-5.86-26-5.94a77.34,77.34,0,0,1,77.33,77.34"/><path class="cls-19" d="M174.46,90.53a77.34,77.34,0,0,1-77.33,77.34,78.72,78.72,0,0,1-12.55-1A76.92,76.92,0,0,1,51.45,153a78.15,78.15,0,0,1-9-7.73,77.63,77.63,0,0,1-14-19.14A76,76,0,0,1,23.73,115a77.2,77.2,0,0,1-2.94-11.9,78.41,78.41,0,0,1,0-25.09,77.33,77.33,0,0,1,2.94-11.91A76.54,76.54,0,0,1,28.4,55c-.09.18-.21.41-.31.59-22.55,50,25,78.79,73,59.83C150.35,96,164,37.16,123.57,18.59a57.17,57.17,0,0,0-17.31-4.87,77.35,77.35,0,0,1,68.2,76.81"/><path class="cls-20" d="M174.46,90.53a77.34,77.34,0,0,1-77.33,77.34,78.72,78.72,0,0,1-12.55-1A76.92,76.92,0,0,1,51.45,153a78.15,78.15,0,0,1-9-7.73,77.63,77.63,0,0,1-14-19.14A76,76,0,0,1,23.73,115a77.2,77.2,0,0,1-2.94-11.9,78.41,78.41,0,0,1,0-25.09,77.33,77.33,0,0,1,2.94-11.91c.43-1.3.9-2.59,1.4-3.87-.51,1.49-1.19,3.47-1.69,4.95-12.68,46,38.25,73.23,87.89,47.09,48.33-25.46,52.71-84,7.31-98-1.33-.41-3.12-.88-4.47-1.21a77.38,77.38,0,0,1,60.29,75.46"/><path class="cls-21" d="M174.46,90.53a77.34,77.34,0,0,1-77.33,77.34,78.72,78.72,0,0,1-12.55-1A76.92,76.92,0,0,1,51.45,153a78.15,78.15,0,0,1-9-7.73,77.63,77.63,0,0,1-14-19.14A76,76,0,0,1,23.73,115a77.2,77.2,0,0,1-2.94-11.9,78.41,78.41,0,0,1,0-25.09,76.53,76.53,0,0,1,1.92-8.6c-.36,1.52-.83,3.55-1.19,5.07-8.28,48.41,51.26,71,99.54,37.79,42.24-29.08,42.52-80.64.52-95.12a77.39,77.39,0,0,1,52.88,73.4"/><path class="cls-22" d="M174.46,90.53a77.34,77.34,0,0,1-77.33,77.34,78.72,78.72,0,0,1-12.55-1A76.92,76.92,0,0,1,51.45,153a78.15,78.15,0,0,1-9-7.73,77.63,77.63,0,0,1-14-19.14A76,76,0,0,1,23.73,115a77.2,77.2,0,0,1-2.94-11.9,78.41,78.41,0,0,1,0-25.09c.07-.38.13-.76.2-1.14-.2,1.55-.47,3.61-.67,5.15C16.81,132.28,85,149.13,130.9,109.31c30.62-26.56,36.21-70.43-2.15-89.38a77.34,77.34,0,0,1,45.71,70.6"/><path class="cls-23" d="M174.46,90.53a77.34,77.34,0,0,1-77.33,77.34,78.72,78.72,0,0,1-12.55-1A76.92,76.92,0,0,1,51.45,153a78.15,78.15,0,0,1-9-7.73,77.63,77.63,0,0,1-14-19.14A76,76,0,0,1,23.73,115a77.2,77.2,0,0,1-2.94-11.9,78.53,78.53,0,0,1-1-12.55c0-1.89.07-3.77.2-5.64,0,1.57-.08,3.66-.11,5.23C25.14,149.53,106,148,144.34,100.83c18.85-23.18,22.31-58.12-8.4-77.21a77.31,77.31,0,0,1,38.52,66.91"/><path class="cls-24" d="M174.46,90.53a77.34,77.34,0,0,1-77.33,77.34,78.72,78.72,0,0,1-12.55-1A76.92,76.92,0,0,1,51.45,153a78.15,78.15,0,0,1-9-7.73,77.63,77.63,0,0,1-14-19.14A76,76,0,0,1,23.73,115a77.2,77.2,0,0,1-2.94-11.9,78.18,78.18,0,0,1-.92-8.86c.09,1.13.22,2.63.31,3.76,10.86,59.91,98.89,51.42,131.45.26,13.49-21.18,16.16-50.95-8.27-69.71a77.21,77.21,0,0,1,31.1,62"/><path class="cls-25" d="M174.46,90.53a77.34,77.34,0,0,1-77.33,77.34,78.72,78.72,0,0,1-12.55-1A76.92,76.92,0,0,1,51.45,153a78.15,78.15,0,0,1-9-7.73,77.63,77.63,0,0,1-14-19.14A76,76,0,0,1,23.73,115a74.83,74.83,0,0,1-2.49-9.44c.34,1.39.81,3.24,1.16,4.63,17,51.48,104.25,43.62,135.38-12.19,5.81-10.43,16.88-37.37-6-62.16a77.07,77.07,0,0,1,22.67,54.71"/><path class="cls-17" d="M125.36,21.5c37.27,26.13,8.72,85.29-44.93,93.08C33.31,121.43,7.31,80.37,35.57,43.73c1-1.3,2.42-3,3.45-4.25s2.24-2.46,3.42-3.64,3.05-2.82,4.35-4l4.66-3.69a77.48,77.48,0,0,1,10.13-6.29L67,19.27l5.66-2.14,5.86-1.69,6-1.24c1.32-.2,3.07-.43,4.39-.58,19.9-2,32.07,4.86,36.39,7.88"/><path class="cls-16" d="M127.74,25c32.23,30.41-5.17,87.51-57.16,87.29C25.25,112.05,10.12,67.62,44,34.3c.66-.65,5-4.37,6.33-5.39l1.08-.8a77.48,77.48,0,0,1,10.13-6.29L67,19.27l4-1.55,4.43-1.44c30.51-7.93,46.75,3.43,52.32,8.68"/><path class="cls-26" d="M129.28,29c27,34.93-19,88.59-68.32,79.74C18,101,14.72,52.81,55.27,25.53,80.72,8.42,114.61,10,129.28,29"/><path class="cls-27" d="M129.92,33.43C151.26,73,97.24,121.25,51.81,103.25,14,88.26,23.38,38,67.54,19.3c24.57-10.43,52.55-4.09,62.38,14.13"/><path class="cls-28" d="M127.41,33.43c17.25,32.4-20.55,80.22-67,69.69C17.7,93.43,21.53,46.32,57,25c29.85-18,60.49-10.12,70.38,8.47"/><path class="cls-29" d="M127,38.36c13.19,39.56-37,78.57-75.63,58.8-36.85-18.87-19-65.63,20.2-78.57,24.67-8.14,49,.54,55.43,19.77"/><path class="cls-30" d="M124.28,38.36c13.31,39.89-34.47,76.42-73,55.84-33-17.62-19.47-63.55,22.3-75.61,23-6.62,44.76,1.88,50.73,19.77"/><path class="cls-31" d="M123,43.73c8.24,42.18-43.23,68.4-72.85,46.8C14.78,64.75,45.56,22.29,81.61,17.72c17.63-2.24,37.27,4.94,41.39,26"/><path class="cls-32" d="M120.34,43.73c9,39.54-36,64.93-65.87,46.8C21.26,70.35,39,28.74,75.21,19.87c18.11-4.43,40,1.15,45.13,23.86"/><path class="cls-33" d="M118.77,49.49c4.08,36.68-37.54,58.83-67.48,35.9-26.14-20-8.39-60.26,28.78-65.23,20.88-2.79,36.43,9,38.7,29.33"/><path class="cls-34" d="M117.52,55.61c1.23,32-42.3,50.18-65.61,27.47C24.32,56.21,54.31,21,84.81,21.24c31,.24,32.65,33,32.71,34.37"/><path class="cls-35" d="M115.68,62.07c-4.41,28.6-48.59,42.79-67.16,13.76C31.81,49.72,60.36,19.11,88.39,23.42c21.32,3.27,29.1,26.9,27.29,38.65"/><path class="cls-36" d="M114.06,62.07c-4.22,27.25-44.33,40.5-62.74,13.76C34.4,51.26,61.57,20.56,87.59,25.58c18.75,3.61,28.35,24.35,26.47,36.49"/><path class="cls-37" d="M112.43,62.07c-3.08,20.34-22,25.63-22.17,25.68-11.88,2.77-27.91,3-36.86-11.92-15-24.94,9-52.62,33.35-47.7,15.82,3.21,27.54,21.65,25.68,33.94"/><path class="cls-38" d="M110.72,58.59C111.54,85,76.56,96.8,60.2,81.17c-18.8-18-6.59-49.76,19.5-50.77,13.93-.54,30.51,11.66,31,28.19"/><path class="cls-39" d="M109.72,62.07c-1.83,24.51-39.18,34.29-52.58,13.76-10.3-15.76,2.2-46.06,28.07-42.09C95.83,35.37,111,45.5,109.72,62.07"/><path class="cls-40" d="M107.12,68.82c-3.54,8.47-15.44,17.54-27.53,17.54-10.73,0-21.43-7.87-23.85-17.54-4.34-17.3,14.08-40.39,36.33-30.6,17.12,7.53,18.31,22.76,15.05,30.6"/><path class="cls-41" d="M105.92,68.82c-2.52,5.75-3.83,7-15.51,14.26-2.8,1.76-7.5,2.21-10.8,2.21C67,85.29,58.86,74.56,57.28,68.82,52.65,52,72.25,32.26,91.93,40c14.82,5.81,17.65,20.49,14,28.86"/><path class="cls-42" d="M104.71,68.82c-3.37,7.57-13.67,15.4-25.09,15.4-7.88,0-17.84-5.4-20.77-15.4C54.37,53.53,73.64,34.47,91.8,41.7c11.9,4.74,17.57,16.65,12.91,27.12"/><path class="cls-43" d="M103.5,68.82c-2.67,5.92-7.54,8.85-13.19,12.25L79.65,83.16c-.12,0-9.93-2.65-10-2.7-5.83-4.35-7.39-5.52-9.21-11.64C56.12,54.26,74.37,36.41,91.68,43.48c.08,0,8.64,5.93,8.72,6,.51.5,3.68,6.08,3.71,6.12,2.68,5.76-.58,13.13-.61,13.21"/><path class="cls-44" d="M102.28,68.82c-2.59,5.68-9.16,9.56-12,11.21s-7.39,2.14-10.65,2.14-7.46-1.08-10-3c-3.28-2.46-6.38-4.79-7.82-10.4-4-15.65,14-30.22,29.68-24,.19.07,18,8,10.7,24"/><path class="cls-45" d="M101.13,68.55s-2,5.27-10.8,10.45c-2.8,1.66-7.39,2-10.64,2.18s-7.3-1.48-9.9-3.19c-2.21-1.46-4.16-4.62-5.46-6.93-1.39-2.46-5-11.29,6.16-21.57,4.32-4,13.79-6.25,21-3.35,4,1.62,9.13,7.56,10,9.47,1.92,4.48,1.92,4.48-.33,12.94"/><path class="cls-46" d="M101.06,64.25c-.37,1.37-.48,3.38-1.25,4.57a29.51,29.51,0,0,1-6.26,7c-2.74,2-4.25,3.18-13.83,4.37-3.11.39-7.34-1.58-9.86-3.44-2.92-2.16-5.52-7.89-5.53-7.94-3.09-10.28,5.55-17.09,8.38-19.33,2.23-1.75,10-3.5,10.06-3.51a20.26,20.26,0,0,1,8.65,1.48c.13.06,12.29,6.79,9.64,16.79"/><path class="cls-47" d="M98.55,68.82c0,.05-5.31,6.55-8.19,8.14S83,79.23,79.75,79.23c0,0-8.35-2.75-9.8-3.82a14.52,14.52,0,0,1-4.39-6.59c-.94-2.95-2.06-10.62,7.86-18.32a67.23,67.23,0,0,1,9.16-3.27,20.63,20.63,0,0,1,8.76,1.58c1,.39,7.21,6.76,7.23,6.8,2.1,5.84,2.89,8,0,13.21"/><path class="cls-48" d="M97.29,68.82c0,.05-6.67,7-6.91,7.12a24.82,24.82,0,0,1-10.59,2.32c-.1,0-10.5-1.75-13-9.44-.13-.39-3-9.56,6.24-16.58a59.81,59.81,0,0,1,9.33-3.75l8.89,1.65c.38.19,12.36,7.62,6,18.68"/><path class="cls-49" d="M96,68.82a16.41,16.41,0,0,1-5.63,5.81,75.83,75.83,0,0,1-10.58,2.66c-1.69,0-10.22-3.91-11.75-8.47C65.75,61.92,70.65,55.55,72.7,54a23.39,23.39,0,0,1,9.5-4.26,17.34,17.34,0,0,1,9,1.7c3.22,1.64,9.61,9.06,4.83,17.37"/><path class="cls-50" d="M94.76,68.82a12.27,12.27,0,0,1-4.33,4.46,99.81,99.81,0,0,1-10.57,3c-1,0-9.7-5.1-10.52-7.51-2.43-7.16,3.24-13.16,3.3-13.21,2.53-1.86,6.29-4.18,9.4-4.66a16.87,16.87,0,0,1,9.09,1.83c3.5,1.81,5,7.1,5.52,9.29s-.84,4.93-1.89,6.75"/><path class="cls-51" d="M93.5,68.82a8.28,8.28,0,0,1-3,3.12c-3,1.41-7.27,3.72-10.55,3.24-.08,0-9-5.44-9.33-6.85-.6-2.35-2-7.87,4.34-12.72,1.85-1.41,4.64-3.23,7-3.44,2.8-.26,6.5,1.1,9.19,1.95,2.16.68,4.31,7.88,4.32,8a13.74,13.74,0,0,1-1.89,6.75"/><path class="cls-52" d="M92.24,68.82a4.46,4.46,0,0,1-1.75,1.8c-3,1.25-7.25,3.7-10.51,3.22a12.27,12.27,0,0,1-7.36-5,9.47,9.47,0,0,1-1.1-6.75c.74-2.48,3.75-4.78,5.72-6.46a14.56,14.56,0,0,1,4.48-2.22c.06,0,9.15,1.84,9.42,2.22,1.23,1.75,2.81,4.33,3,6.46a13.36,13.36,0,0,1-1.89,6.75"/><path class="cls-53" d="M91,68.82c-.61,1.05-10.86,3.7-10.94,3.69a9.17,9.17,0,0,1-5.46-3.69c-1.1-1.74-1.82-4.79-1.21-6.75.8-2.57,4.22-4.65,6.21-6.46a5.18,5.18,0,0,1,2-1c2.84-.7,7.14,1.11,9.25,3.14a7.08,7.08,0,0,1,2.05,4.3A14.76,14.76,0,0,1,91,68.82"/><path class="cls-54" d="M90.62,65.61a8.38,8.38,0,0,1-2.8,3.21c-2.13,1.13-5.31,2.71-7.7,2.36a5.4,5.4,0,0,1-3.52-2.36c-1-1.82-1.95-4.79-1.32-6.75.78-2.46,3.59-5.57,6.12-6,3-.53,7.26,2,9.4,4.22,1.12,1.15.59,3.92-.18,5.33"/><path class="cls-55" d="M83.6,68.82a5.72,5.72,0,0,1-3.4,1.05,2.22,2.22,0,0,1-1.58-1.05c-.74-1.93-2-4.77-1.43-6.75.49-1.61,2.33-3.66,4-3.93,2.69-.45,7.63,1.26,8.2,3.93s-3.55,5.28-5.78,6.75"/><path class="cls-56" d="M80.36,67.54c-.37-1.64-1.7-3.85-1.23-5.46A2.89,2.89,0,0,1,81,60.24c1.24-.2,3.47.61,3.74,1.83.46,2-3,3.82-4.34,5.47"/></g><g class="cls-59"><path class="cls-60" d="M174.46,90.53H19.78a77.34,77.34,0,1,1,154.68,0"/><path class="cls-61" d="M151.58,145.45H42.67A77.1,77.1,0,0,1,19.78,90.54H174.46a77.09,77.09,0,0,1-22.88,54.91"/><path class="cls-62" d="M97.13,167.87a77.09,77.09,0,0,1-54.46-22.42H151.58a77.07,77.07,0,0,1-54.45,22.42"/></g></g></g></g><path class="cls-63" d="M97,13.19a77.34,77.34,0,1,0,77.35,77.34A77.34,77.34,0,0,0,97,13.19Z"/><g class="cls-64"><path class="cls-65" d="M112.74,15.05a66.89,66.89,0,1,0,49.41,80.66A66.88,66.88,0,0,0,112.74,15.05Z"/></g></g></g></g></svg>